<svg width="220" height="78" viewBox="0 0 220 78" fill="none" xmlns="http://www.w3.org/2000/svg">
<path d="M63.2473 27.2717C62.0494 27.8637 60.8635 28.5456 59.6894 29.3174C58.2243 30.2811 56.8733 31.2804 55.4938 32.289C53.517 33.7346 51.5283 35.2893 49.5277 36.9532C45.5504 40.2615 41.7716 43.6751 38.1913 47.194C36.9937 48.3709 35.4758 50.0258 33.8481 51.784C32.6355 53.0937 31.5046 54.4713 30.4556 55.9169C29.029 57.8834 27.7223 59.7059 26.4918 61.691C26.4785 61.7124 26.483 61.7293 26.5054 61.7416C29.2352 63.2717 31.9799 64.7532 34.8381 66.0321C34.8534 66.0389 34.8699 66.0424 34.8866 66.0426C34.9033 66.0427 34.9198 66.0394 34.9351 66.0328C37.3418 65.0007 39.1429 64.0142 41.9575 62.482C44.367 61.1703 46.437 59.7958 48.6368 58.3892C50.3868 57.2707 52.0954 55.876 53.7626 54.205C55.1412 52.8226 56.2499 51.2305 57.0887 49.4287C57.9282 47.6234 58.1536 45.4471 58.3198 43.696C58.3377 43.5091 58.302 43.5319 58.1936 43.4421C57.7204 43.0469 57.2342 42.6674 56.7349 42.3036" stroke="#756256" stroke-width="0.061018"/>
<path d="M56.743 42.2992L50.7278 37.5408" stroke="#7C8FB0" stroke-width="0.061018"/>
<path d="M50.7278 37.5511L51.593 36.79" stroke="#6379A1" stroke-width="0.061018"/>
<path d="M51.5895 36.79L56.813 40.9257" stroke="#7C8FB0" stroke-width="0.061018"/>
<path d="M56.816 40.9215L58.4595 42.2654C58.4645 42.2694 58.4706 42.272 58.477 42.2728C58.4834 42.2737 58.4899 42.2728 58.4958 42.2702C58.5018 42.2677 58.5069 42.2635 58.5107 42.2583C58.5144 42.253 58.5167 42.2468 58.5173 42.2404C58.7876 38.7074 58.6963 35.0689 58.6642 31.4946C58.6613 31.2171 58.7006 30.8469 58.6813 30.516C58.6791 30.48 58.6862 30.444 58.7019 30.4114C58.7177 30.3789 58.7415 30.3508 58.7712 30.3298L59.7719 29.6229" stroke="#756256" stroke-width="0.061018"/>
<path d="M57.0017 29.9473L58.7129 28.9744C58.8627 28.8892 58.8558 28.8733 58.6922 28.9266C56.4246 29.662 54.279 30.3881 51.9337 31.4302C48.4756 32.9659 45.2736 34.4082 42.3042 35.9925C35.0214 39.8778 28.0796 44.43 21.7876 49.7869C19.624 51.6291 17.7138 53.6427 16.057 55.8278" stroke="#756256" stroke-width="0.061018"/>
<path d="M57.0041 29.9487L55.2002 30.612" stroke="#F0CA9D" stroke-width="0.061018"/>
<path d="M55.207 30.6003C54.1632 30.994 53.1406 31.4372 52.1391 31.9299C50.4372 32.7673 48.7296 33.5911 47.0384 34.4492C41.8548 37.0784 37.1991 39.933 32.1683 43.4745C29.3564 45.4542 26.6516 47.57 24.0538 49.8221C22.3409 51.3077 20.7776 52.812 19.3639 54.3352C18.585 55.174 17.9451 56.0435 17.2917 56.953" stroke="#D7B48E" stroke-width="0.061018"/>
<path d="M18.4673 57.846C19.4355 56.4575 20.4835 55.1314 21.6115 53.868C22.2235 53.1832 22.9582 52.4678 23.6401 51.7787C23.9825 51.4321 24.3246 51.1018 24.6665 50.788C26.2629 49.3236 27.8593 47.7771 29.5469 46.4397C31.4529 44.9294 32.9955 43.7736 34.1748 42.9724C35.7588 41.8958 36.7707 41.2015 37.2106 40.8896C39.1817 39.4925 41.0039 38.3205 42.6773 37.3737C44.0007 36.6252 45.3234 35.8756 46.6454 35.1247C48.0506 34.3258 49.4408 33.4142 50.7832 32.7409C51.9851 32.1381 53.5201 31.5083 55.1471 30.7272C55.1676 30.7173 55.1802 30.7013 55.1849 30.6795L55.2013 30.6003" stroke="#DEE1E8" stroke-width="0.061018"/>
<path d="M56.816 40.9136C56.9582 39.459 57.0918 38.0079 57.2169 36.5604C57.3467 35.0589 57.2947 33.6109 57.2433 31.9175" stroke="#F0CA9D" stroke-width="0.061018"/>
<path d="M57.2352 31.9226L57.2295 31.5231C57.2291 31.4955 57.2179 31.4901 57.196 31.5067C54.9163 33.2243 52.7441 34.9835 50.6793 36.7844C46.9559 40.032 43.3238 43.4637 39.8379 47.0487C37.0485 49.918 34.6649 53.0924 32.6871 56.5719C31.8112 58.1133 31.0045 59.7061 30.182 61.2761C30.1803 61.2791 30.1793 61.2824 30.179 61.2859C30.1786 61.2893 30.179 61.2928 30.1801 61.2961C30.1811 61.2993 30.1829 61.3024 30.1852 61.3049C30.1875 61.3075 30.1903 61.3096 30.1934 61.311C31.1588 61.7865 32.1343 62.2452 33.1201 62.687C33.6479 62.9231 34.3134 63.1271 34.8984 63.3917C34.9089 63.3964 34.9203 63.3989 34.9319 63.3989C34.9434 63.3989 34.9549 63.3964 34.9654 63.3917L35.4462 63.1727" stroke="#D7B48E" stroke-width="0.061018"/>
<path d="M35.4468 63.175C36.1339 62.951 36.8943 62.6402 37.7279 62.2427C39.7993 61.2546 41.3771 60.4842 42.4613 59.9316C47.4109 57.4094 52.0067 53.813 54.8912 48.984C55.8333 47.4071 56.3951 45.6926 56.5768 43.8404C56.6267 43.3302 56.6795 42.8183 56.7351 42.3047" stroke="#F0CA9D" stroke-width="0.061018"/>
<path d="M57.2402 31.9175L51.5895 36.7779" stroke="#DEE1E8" stroke-width="0.061018"/>
<path d="M50.7193 37.5408C49.1752 38.9141 47.5092 40.4619 45.7212 42.1843C42.9598 44.844 40.3853 47.5882 37.9976 50.4172C37.3642 51.1676 36.8421 51.8751 36.3292 52.6569C34.6394 55.2333 33.0395 57.8996 31.9417 60.7806C31.9341 60.8004 31.9332 60.8221 31.9392 60.8425C31.9451 60.863 31.9575 60.8811 31.9745 60.894C33.1073 61.7438 34.2645 62.5023 35.4462 63.1694" stroke="#DEE1E8" stroke-width="0.061018"/>
<path d="M34.5522 11.5823C34.3738 11.7126 34.1125 11.9287 33.7682 12.2307C30.5085 15.0938 27.2487 17.9582 23.9889 20.8237C23.9699 20.8404 23.9702 20.8568 23.9897 20.8729L27.6467 23.903C27.6544 23.9094 27.6636 23.9135 27.6735 23.9147C27.6834 23.916 27.6934 23.9144 27.7024 23.9102C28.3353 23.6215 28.9575 23.3281 29.5691 23.0299C29.8979 22.8695 30.1554 23.0357 30.3715 23.3117C33.0621 26.7403 35.7552 30.1691 38.451 33.5981C38.4575 33.6064 38.4668 33.6121 38.4772 33.6141C38.4876 33.616 38.4983 33.6142 38.5074 33.6088L42.7943 31.1251" stroke="#6379A1" stroke-width="0.061018"/>
<path d="M42.7933 31.1315C43.1949 30.8618 43.7434 30.5808 44.1885 30.9246C44.637 31.2708 45.224 31.7366 45.9497 32.3219" stroke="#7C8FB0" stroke-width="0.061018"/>
<path d="M45.9497 32.3149C46.0248 32.4204 46.1221 32.4461 46.2414 32.3919C47.6405 31.7604 49.0542 31.16 50.4827 30.5908" stroke="#6379A1" stroke-width="0.061018"/>
<path d="M50.4799 30.597C52.4899 29.839 54.5216 29.1397 56.575 28.4992" stroke="#7C8FB0" stroke-width="0.061018"/>
<path d="M56.5823 28.4953L58.1886 28.0338C58.2405 28.019 58.2443 27.9967 58.2 27.9667C58.1363 27.9234 58.0709 27.8642 58.0039 27.7891C56.2906 25.8661 54.5767 23.9435 52.8624 22.0214C52.8596 22.0185 52.6756 21.7977 52.3104 21.3587C52.0807 21.0834 51.8294 20.829 51.5564 20.5955" stroke="#756256" stroke-width="0.061018"/>
<path d="M51.5528 20.5998L49.9986 18.8786C49.9819 18.8601 49.9636 18.8586 49.9436 18.8743C49.0187 19.6085 48.0986 20.3501 47.1832 21.0991C46.8394 21.3808 46.5712 21.4907 46.2138 21.1768C42.4538 17.8786 38.6945 14.5779 34.9359 11.2749C34.9169 11.2582 34.8969 11.2568 34.876 11.2706C34.7252 11.3667 34.6173 11.4725 34.5521 11.588" stroke="#7C8FB0" stroke-width="0.061018"/>
<path d="M51.5564 20.5955C51.9192 21.0297 52.1675 21.3519 52.3011 21.562C53.7526 23.8453 55.3062 26.11 56.5823 28.4953" stroke="#F0CA9D" stroke-width="0.061018"/>
<path d="M50.4827 30.5908C50.3115 30.6151 50.1025 30.64 49.942 30.7049C48.8317 31.1515 47.727 31.612 46.6281 32.0866C46.4069 32.1815 46.2536 32.3327 45.9497 32.3149" stroke="#DEE1E8" stroke-width="0.061018"/>
<path d="M42.7898 31.1251C42.7346 31.0053 42.6899 30.9287 42.6557 30.8954C38.5571 26.9288 36.0627 22.0114 34.9585 16.4284C34.6556 14.8958 34.5186 13.2804 34.5476 11.5823" stroke="#DEE1E8" stroke-width="0.061018"/>
<path d="M18.1962 20.6522C17.9694 20.8362 17.7623 21.0411 17.5749 21.267C17.3034 21.5947 17.1662 21.7601 17.1633 21.7635C15.2455 23.9133 13.3258 26.062 11.4042 28.2095C11.3623 28.2561 11.2746 28.3206 11.141 28.4028C11.1201 28.4157 11.1096 28.4344 11.1096 28.4592C11.1186 31.6447 11.117 34.8306 11.1046 38.0166C11.0968 39.8719 11.2194 41.7357 11.4113 43.5817C11.4137 43.6065 11.4251 43.6117 11.4456 43.5974L13.1753 42.3713" stroke="#756256" stroke-width="0.061018"/>
<path d="M13.1746 42.3704L19.0036 38.3104" stroke="#6379A1" stroke-width="0.061018"/>
<path d="M19.0056 38.3163C21.2378 36.7623 23.4706 35.2097 25.7042 33.6585C26.0059 33.4488 26.2442 33.411 26.563 33.57C28.7019 34.6367 30.8413 35.709 32.9812 36.787C33.0026 36.7975 33.0236 36.7967 33.044 36.7849L37.4686 34.2184C37.4852 34.2084 37.4876 34.1958 37.4757 34.1806L29.7008 24.2794C29.6737 24.2442 29.6399 24.2361 29.5995 24.2551C29.0498 24.5195 28.4884 24.7803 27.9154 25.0376C27.3433 25.2944 27.1208 24.8935 26.7435 24.5797C24.6245 22.8174 22.4965 21.0612 20.3595 19.3113" stroke="#7C8FB0" stroke-width="0.061018"/>
<path d="M20.3649 19.3099L19.8499 18.8934C19.8285 18.8762 19.8083 18.8779 19.7893 18.8983L18.2029 20.6559" stroke="#6379A1" stroke-width="0.061018"/>
<path d="M20.3573 19.3113C20.2455 19.7074 20.1331 20.0992 20.0199 20.4868C18.3308 26.2754 17.9437 32.1561 18.8587 38.1287C18.8753 38.2376 18.9236 38.3001 19.0035 38.3163" stroke="#DEE1E8" stroke-width="0.061018"/>
<path d="M13.1712 42.3713C13.156 42.3261 13.1434 42.231 13.1334 42.086C13.0431 40.7773 12.8997 39.1757 12.7033 37.2812C12.6334 36.6064 12.5778 35.8739 12.5785 35.3097C12.5828 33.3685 12.6085 31.8483 12.6555 30.7488C12.7169 29.3144 13.381 28.2238 14.1948 26.9042C15.4887 24.805 16.8012 22.6865 18.1921 20.6522" stroke="#D7B48E" stroke-width="0.061018"/>
<path d="M19.0521 39.6796L13.2501 43.7111" stroke="#6379A1" stroke-width="0.061018"/>
<path d="M13.2513 43.7117L11.6357 44.8116C11.6157 44.8249 11.6072 44.8434 11.61 44.8672C11.767 46.3387 11.9852 47.7939 12.5872 49.1591C13.1303 50.3917 13.812 51.5408 14.6323 52.6065C14.6475 52.6264 14.6641 52.6276 14.6822 52.61L16.3249 50.983" stroke="#756256" stroke-width="0.061018"/>
<path d="M16.3226 50.9738C17.9066 49.4816 19.5451 48.0524 21.238 46.6862" stroke="#6379A1" stroke-width="0.061018"/>
<path d="M21.2341 46.6895C22.2484 45.9063 23.2844 45.1545 24.342 44.4341" stroke="#7C8FB0" stroke-width="0.061018"/>
<path d="M24.3396 44.4287C28.9532 41.353 33.8357 38.3942 38.8017 35.8627C40.724 34.8827 42.7113 33.9968 44.6686 33.0837" stroke="#6379A1" stroke-width="0.061018"/>
<path d="M44.6706 33.0972L44.8939 32.9937C44.9215 32.9809 44.9234 32.965 44.8996 32.9459L43.687 31.9837C43.6656 31.9666 43.6428 31.9649 43.6185 31.9787C40.2798 33.9094 36.9425 35.8426 33.6067 37.7785C33.2422 37.9904 33.0104 38.0774 32.6395 37.8934C30.521 36.8396 28.4032 35.7777 26.2861 34.7078C26.2519 34.6907 26.2191 34.693 26.1877 34.7149L19.0469 39.6823" stroke="#7C8FB0" stroke-width="0.061018"/>
<path d="M44.6686 33.0925C44.5868 33.0545 44.4819 33.0637 44.354 33.1203C43.1514 33.6539 41.9759 34.2324 40.7789 34.7852C38.0898 36.0263 35.6061 37.4365 32.9576 38.9144C32.2201 39.3253 31.4719 39.8125 30.6501 40.2975C29.0488 41.2426 26.5722 42.794 24.6114 44.1379C24.4958 44.2164 24.4188 44.3262 24.3396 44.4375" stroke="#DEE1E8" stroke-width="0.061018"/>
<path d="M21.2338 46.6948C20.3674 44.5007 19.6867 42.2508 19.1917 39.9449C19.1667 39.8286 19.1139 39.7723 19.0469 39.6796" stroke="#DEE1E8" stroke-width="0.061018"/>
<path d="M16.3237 50.983C15.2145 49.4623 14.2238 47.8695 13.6902 46.0477C13.4591 45.2581 13.3671 44.4942 13.2501 43.7117" stroke="#D7B48E" stroke-width="0.061018"/>
<path d="M63.2493 27.2771C62.0514 27.8691 60.8654 28.551 59.6913 29.3228C58.2262 30.2864 56.8752 31.2858 55.4957 32.2944C53.5189 33.74 51.5303 35.2947 49.5297 36.9586C45.5524 40.2669 41.7736 43.6805 38.1933 47.1994C36.9957 48.3763 35.4778 50.0312 33.85 51.7894C32.6374 53.099 31.5066 54.4767 30.4576 55.9223C29.031 57.8888 27.7242 59.7113 26.4938 61.6964C26.4805 61.7178 26.485 61.7347 26.5073 61.747C29.2371 63.277 31.9819 64.7586 34.8401 66.0375C34.8554 66.0443 34.8719 66.0478 34.8886 66.0479C34.9053 66.0481 34.9218 66.0448 34.9371 66.0382C37.3438 65.0061 39.1448 64.0196 41.9595 62.4874C44.369 61.1757 46.439 59.8012 48.6388 58.3945C50.3888 57.2761 52.0973 55.8814 53.7646 54.2104C55.1431 52.828 56.2518 51.2359 57.0906 49.4341C57.9302 47.6288 58.1556 45.4525 58.3218 43.7014C58.3396 43.5145 58.304 43.5373 58.1955 43.4475C57.7224 43.0523 57.2362 42.6728 56.7369 42.309L50.7216 37.5506L51.5869 36.7896L56.8103 40.9252L58.4538 42.2691C58.4588 42.2731 58.4649 42.2757 58.4713 42.2766C58.4777 42.2774 58.4842 42.2765 58.4901 42.2739C58.4961 42.2714 58.5012 42.2672 58.505 42.262C58.5087 42.2567 58.511 42.2506 58.5115 42.2441C58.7819 38.7112 58.6906 35.0727 58.6585 31.4983C58.6556 31.2209 58.6949 30.8507 58.6756 30.5197C58.6734 30.4837 58.6805 30.4478 58.6962 30.4152C58.7119 30.3826 58.7358 30.3545 58.7655 30.3335L59.7662 29.6266C59.7762 32.0875 59.7577 34.5427 59.7791 36.9964C59.8081 40.2823 59.5608 43.5697 59.0372 46.8584C58.2234 51.972 53.9714 56.077 49.8949 58.9017C48.7446 59.6987 47.0077 60.8038 44.6843 62.2171C42.5365 63.5238 40.2533 64.6894 38.02 65.8428C37.0905 66.3228 35.9635 66.7957 35.1432 67.1873C34.9953 67.2577 34.8553 67.2639 34.7231 67.2059C33.6952 66.7537 32.6695 66.3064 31.6702 65.7921C29.4704 64.6585 27.1631 63.4047 24.7484 62.0309C24.2058 61.7223 23.7302 61.3977 23.3218 61.0573C23.3617 61.0454 23.3883 61.0299 23.4017 61.0109C26.7912 56.3196 30.4105 51.8023 34.5184 47.7151C35.9835 46.2576 37.8098 44.5295 39.9972 42.5309C44.1895 38.7 48.5882 35.3014 53.1932 32.335C54.4536 31.5226 55.7418 30.7615 57.0051 29.9498L58.7163 28.9768C58.866 28.8917 58.8591 28.8758 58.6956 28.9291C56.428 29.6645 54.2824 30.3906 51.9371 31.4327C48.479 32.9684 45.277 34.4107 42.3076 35.9949C35.0248 39.8803 28.083 44.4325 21.791 49.7894C19.6274 51.6316 17.7172 53.6452 16.0604 55.8302C14.2279 54.1205 12.7657 52.2031 11.7121 49.9777C11.1907 48.8771 10.8976 47.81 10.7035 46.5631C10.3255 44.1279 10.1037 41.7995 10.038 39.5778C9.94531 36.4557 10.0559 32.7174 10.0202 29.2928C10.0174 28.9733 10.068 28.536 10.0352 28.1516C10.03 28.0897 10.0471 28.036 10.0865 27.9904C10.7435 27.2286 11.526 26.4532 12.128 25.7791C14.4234 23.2122 16.719 20.6453 19.0149 18.0784C19.43 17.6141 19.7246 17.3423 20.2853 17.7924C21.2278 18.5494 22.1636 19.3065 23.0928 20.0635C23.1031 20.0719 23.116 20.0764 23.1293 20.0761C23.1425 20.0759 23.1551 20.0709 23.1648 20.0621C26.8607 16.8118 30.561 13.5606 34.2659 10.3085C34.6503 9.9711 35.0262 9.86482 35.4335 10.2229C39.165 13.5045 42.8965 16.7862 46.628 20.0678C46.6466 20.084 46.6656 20.0844 46.6851 20.0692C47.6352 19.3074 48.5827 18.5466 49.5276 17.7867C49.9094 17.4795 50.2582 17.5023 50.574 17.8551C52.9683 20.5319 55.3621 23.2091 57.7554 25.8868C58.2505 26.4404 58.8739 27.0488 59.411 27.6494C59.4285 27.669 59.4512 27.6833 59.4764 27.6905C59.5017 27.6977 59.5285 27.6975 59.5537 27.6901C60.5851 27.3895 61.6344 27.1479 62.7014 26.9653C62.8384 26.9416 62.9511 26.9347 63.0395 26.9447C63.3039 26.9732 63.3739 27.084 63.2493 27.2771ZM34.5491 11.5938C34.3707 11.7241 34.1094 11.9403 33.7651 12.2422C30.5054 15.1054 27.2456 17.9697 23.9858 20.8353C23.9668 20.8519 23.9671 20.8683 23.9866 20.8845L27.6436 23.9146C27.6513 23.921 27.6605 23.925 27.6704 23.9263C27.6803 23.9275 27.6903 23.926 27.6993 23.9217C28.3322 23.6331 28.9544 23.3397 29.566 23.0415C29.8948 22.881 30.1523 23.0472 30.3684 23.3233C33.059 26.7518 35.7521 30.1806 38.4479 33.6097C38.4544 33.618 38.4637 33.6237 38.4741 33.6256C38.4845 33.6276 38.4952 33.6257 38.5043 33.6204L42.7912 31.1367C43.1928 30.8671 43.7413 30.586 44.1864 30.9298C44.6348 31.276 45.2219 31.7418 45.9475 32.3272C46.0227 32.4328 46.1199 32.4584 46.2393 32.4042C47.6383 31.7727 49.052 31.1724 50.4805 30.6031C52.4906 29.8452 54.5223 29.1459 56.5757 28.5054L58.182 28.0438C58.2338 28.0291 58.2376 28.0068 58.1934 27.9768C58.1297 27.9335 58.0643 27.8743 57.9973 27.7992C56.2839 25.8761 54.5701 23.9536 52.8558 22.0315C52.853 22.0286 52.6689 21.8077 52.3037 21.3688C52.074 21.0935 51.8227 20.8391 51.5498 20.6056L49.9955 18.8844C49.9788 18.8659 49.9605 18.8645 49.9406 18.8801C49.0157 19.6144 48.0955 20.356 47.1801 21.1049C46.8363 21.3867 46.5681 21.4965 46.2107 21.1827C42.4507 17.8844 38.6914 14.5837 34.9328 11.2807C34.9138 11.2641 34.8938 11.2626 34.8729 11.2764C34.7221 11.3725 34.6142 11.4783 34.5491 11.5938ZM18.1953 20.6627C17.9685 20.8467 17.7614 21.0517 17.574 21.2775C17.3025 21.6052 17.1653 21.7707 17.1624 21.774C15.2446 23.9239 13.3249 26.0725 11.4033 28.22C11.3614 28.2666 11.2737 28.3311 11.1401 28.4133C11.1192 28.4262 11.1087 28.445 11.1087 28.4697C11.1177 31.6553 11.1161 34.8411 11.1037 38.0271C11.0959 39.8824 11.2185 41.7462 11.4104 43.5922C11.4128 43.617 11.4242 43.6222 11.4447 43.6079L13.1744 42.3818L19.0035 38.3217C21.2356 36.7677 23.4685 35.2151 25.702 33.6639C26.0038 33.4542 26.242 33.4164 26.5608 33.5754C28.6998 34.6421 30.8392 35.7144 32.9791 36.7924C33.0005 36.8029 33.0214 36.8022 33.0419 36.7903L37.4664 34.2238C37.4831 34.2139 37.4855 34.2012 37.4736 34.186L29.6986 24.2848C29.6715 24.2496 29.6378 24.2415 29.5973 24.2605C29.0476 24.5249 28.4863 24.7858 27.9133 25.043C27.3412 25.2998 27.1186 24.8989 26.7413 24.5851C24.6223 22.8228 22.4943 21.0666 20.3573 19.3167L19.8423 18.9001C19.8209 18.883 19.8007 18.8847 19.7817 18.9051L18.1953 20.6627ZM19.0477 39.682L13.2457 43.7135L11.6301 44.8134C11.6101 44.8267 11.6016 44.8453 11.6044 44.869C11.7614 46.3406 11.9796 47.7957 12.5817 49.1609C13.1247 50.3935 13.8064 51.5426 14.6267 52.6083C14.6419 52.6283 14.6585 52.6295 14.6766 52.6119L16.3193 50.9848C17.9033 49.4926 19.5418 48.0634 21.2347 46.6972C22.249 45.914 23.2849 45.1622 24.3425 44.4418C28.9561 41.3661 33.8386 38.4073 38.8046 35.8758C40.7269 34.8958 42.7142 34.0098 44.6714 33.0968L44.8947 32.9934C44.9223 32.9806 44.9242 32.9646 44.9004 32.9456L43.6878 31.9834C43.6664 31.9663 43.6436 31.9646 43.6193 31.9784C40.2806 33.909 36.9434 35.8423 33.6075 37.7782C33.243 37.99 33.0112 38.0771 32.6403 37.893C30.5218 36.8392 28.404 35.7774 26.2869 34.7074C26.2527 34.6903 26.2199 34.6927 26.1885 34.7146L19.0477 39.682Z" fill="#023047"/>
<path d="M51.5548 20.6039C51.9176 21.038 52.1659 21.3602 52.2995 21.5704C53.751 23.8536 55.3046 26.1184 56.5807 28.5036C54.5274 29.1442 52.4956 29.8434 50.4856 30.6014C50.3144 30.6257 50.1054 30.6506 49.9449 30.7155C48.8345 31.1621 47.7299 31.6226 46.6309 32.0972C46.4098 32.1921 46.2564 32.3433 45.9526 32.3255C45.2269 31.7401 44.6399 31.2743 44.1914 30.9281C43.7463 30.5843 43.1978 30.8653 42.7962 31.135C42.7411 31.0151 42.6964 30.9386 42.6621 30.9053C38.5635 26.9387 36.0691 22.0212 34.965 16.4382C34.662 14.9056 34.5251 13.2902 34.5541 11.5921C34.6192 11.4766 34.7272 11.3708 34.8779 11.2747C34.8989 11.2609 34.9188 11.2623 34.9378 11.279C38.6964 14.582 42.4558 17.8827 46.2158 21.1809C46.5731 21.4948 46.8413 21.3849 47.1852 21.1032C48.1006 20.3542 49.0207 19.6126 49.9456 18.8784C49.9656 18.8627 49.9839 18.8641 50.0005 18.8827L51.5548 20.6039Z" fill="#F7F7F7"/>
<path d="M34.5504 11.6006C34.5214 13.2987 34.6584 14.9141 34.9613 16.4467C36.0655 22.0297 38.5599 26.9471 42.6585 30.9138C42.6927 30.947 42.7374 31.0236 42.7926 31.1434L38.5057 33.6271C38.4966 33.6325 38.4859 33.6343 38.4755 33.6324C38.4651 33.6304 38.4558 33.6247 38.4493 33.6164C35.7535 30.1874 33.0604 26.7586 30.3698 23.33C30.1537 23.054 29.8962 22.8878 29.5674 23.0483C28.9558 23.3464 28.3336 23.6398 27.7007 23.9285C27.6917 23.9327 27.6817 23.9343 27.6718 23.933C27.6619 23.9318 27.6526 23.9277 27.645 23.9213L23.9879 20.8913C23.9685 20.8751 23.9682 20.8587 23.9872 20.842C27.247 17.9765 30.5068 15.1121 33.7665 12.249C34.1108 11.947 34.3721 11.7309 34.5504 11.6006Z" fill="#C5CBD9"/>
<path d="M20.3512 19.314C20.2395 19.7101 20.127 20.102 20.0138 20.4895C18.3247 26.2781 17.9377 32.1588 18.8526 38.1314C18.8692 38.2403 18.9175 38.3029 18.9974 38.319L13.1683 42.3791C13.1531 42.3339 13.1405 42.2388 13.1305 42.0938C13.0402 40.7851 12.8968 39.1836 12.7004 37.289C12.6305 36.6143 12.5749 35.8817 12.5756 35.3175C12.5798 33.3764 12.6055 31.8561 12.6526 30.7567C12.7139 29.3222 13.378 28.2316 14.1919 26.912C15.4858 24.8128 16.7983 22.6943 18.1892 20.66L19.7756 18.9024C19.7946 18.882 19.8148 18.8803 19.8362 18.8974L20.3512 19.314Z" fill="#C5CBD9"/>
<path d="M20.3555 19.3201C22.4925 21.0701 24.6205 22.8262 26.7395 24.5885C27.1168 24.9024 27.3393 25.3032 27.9114 25.0465C28.4844 24.7892 29.0458 24.5284 29.5955 24.264C29.6359 24.245 29.6697 24.253 29.6968 24.2882L37.4717 34.1895C37.4836 34.2047 37.4812 34.2173 37.4646 34.2273L33.04 36.7937C33.0196 36.8056 32.9986 36.8063 32.9772 36.7959C30.8374 35.7178 28.6979 34.6455 26.559 33.5789C26.2402 33.4198 26.0019 33.4576 25.7002 33.6673C23.4666 35.2185 21.2338 36.7711 19.0016 38.3252C18.9217 38.309 18.8735 38.2465 18.8568 38.1376C17.9419 32.1649 18.329 26.2843 20.0181 20.4956C20.1312 20.1081 20.2437 19.7162 20.3555 19.3201Z" fill="#F7F7F7"/>
<path d="M51.5535 20.6091C51.8264 20.8426 52.0777 21.097 52.3074 21.3723C52.6726 21.8112 52.8567 22.0321 52.8595 22.0349C54.5738 23.957 56.2876 25.8796 58.001 27.8026C58.068 27.8778 58.1334 27.937 58.1971 27.9803C58.2413 28.0102 58.2375 28.0326 58.1857 28.0473L56.5794 28.5088C55.3033 26.1236 53.7497 23.8588 52.2981 21.5756C52.1645 21.3654 51.9163 21.0432 51.5535 20.6091Z" fill="#00A6FB"/>
<path d="M18.1933 20.661C16.8023 22.6953 15.4899 24.8138 14.196 26.913C13.3821 28.2326 12.718 29.3233 12.6567 30.7577C12.6096 31.8571 12.5839 33.3774 12.5796 35.3185C12.5789 35.8827 12.6345 36.6153 12.7045 37.2901C12.9008 39.1846 13.0442 40.7861 13.1346 42.0948C13.1446 42.2398 13.1572 42.3349 13.1724 42.3801L11.4426 43.6063C11.4222 43.6205 11.4108 43.6153 11.4084 43.5906C11.2165 41.7446 11.0938 39.8807 11.1017 38.0255C11.114 34.8394 11.1157 31.6536 11.1067 28.468C11.1067 28.4433 11.1171 28.4245 11.1381 28.4117C11.2717 28.3294 11.3594 28.265 11.4013 28.2184C13.3229 26.0709 15.2426 23.9222 17.1604 21.7723C17.1633 21.769 17.3005 21.6035 17.572 21.2759C17.7593 21.05 17.9664 20.845 18.1933 20.661Z" fill="#00A6FB"/>
<path d="M63.2455 27.2758C63.2845 27.3799 63.2816 27.4441 63.2369 27.4683C62.0595 28.1046 60.9013 28.8236 59.7624 29.6253L58.7617 30.3322C58.732 30.3532 58.7081 30.3813 58.6924 30.4139C58.6767 30.4465 58.6696 30.4824 58.6718 30.5184C58.6911 30.8494 58.6518 31.2196 58.6547 31.497C58.6868 35.0714 58.7781 38.7099 58.5077 42.2428C58.5072 42.2493 58.5049 42.2554 58.5012 42.2607C58.4974 42.2659 58.4923 42.2701 58.4863 42.2726C58.4804 42.2752 58.4739 42.2761 58.4675 42.2753C58.4611 42.2744 58.455 42.2718 58.45 42.2678L56.8065 40.9239C56.9487 39.4693 57.0823 38.0182 57.2074 36.5707C57.3372 35.0692 57.2852 33.6212 57.2338 31.9279L57.2281 31.5284C57.2276 31.5008 57.2164 31.4954 57.1946 31.512C54.9149 33.2296 52.7426 34.9889 50.6779 36.7897C46.9545 40.0373 43.3224 43.469 39.8365 47.054C37.047 49.9233 34.6634 53.0977 32.6857 56.5772C31.8098 58.1186 31.003 59.7114 30.1806 61.2814C30.1789 61.2844 30.1779 61.2877 30.1775 61.2912C30.1772 61.2946 30.1776 61.2981 30.1786 61.3014C30.1797 61.3046 30.1814 61.3077 30.1837 61.3102C30.186 61.3128 30.1889 61.3149 30.192 61.3163C31.1573 61.7919 32.1329 62.2505 33.1187 62.6923C33.6465 62.9284 34.312 63.1324 34.8969 63.397C34.9075 63.4017 34.9189 63.4042 34.9304 63.4042C34.942 63.4042 34.9534 63.4017 34.964 63.397L35.4447 63.178C36.1319 62.954 36.8922 62.6433 37.7258 62.2457C39.7973 61.2576 41.3751 60.4872 42.4593 59.9347C47.4088 57.4125 52.0046 53.816 54.8892 48.987C55.8312 47.4102 56.3931 45.6956 56.5747 43.8435C56.6246 43.3332 56.6774 42.8213 56.7331 42.3077C57.2324 42.6715 57.7186 43.051 58.1917 43.4461C58.3002 43.536 58.3358 43.5132 58.318 43.7001C58.1518 45.4512 57.9264 47.6275 57.0869 49.4328C56.248 51.2346 55.1393 52.8267 53.7608 54.2091C52.0935 55.8801 50.385 57.2748 48.635 58.3932C46.4352 59.7999 44.3652 61.1744 41.9557 62.4861C39.141 64.0183 37.34 65.0048 34.9333 66.0369C34.918 66.0435 34.9015 66.0468 34.8848 66.0466C34.8681 66.0465 34.8516 66.043 34.8363 66.0362C31.9781 64.7573 29.2333 63.2757 26.5036 61.7457C26.4812 61.7334 26.4767 61.7165 26.49 61.6951C27.7204 59.71 29.0272 57.8875 30.4538 55.921C31.5028 54.4754 32.6336 53.0977 33.8462 51.7881C35.474 50.0299 36.9919 48.375 38.1895 47.1981C41.7698 43.6792 45.5486 40.2656 49.5259 36.9573C51.5265 35.2934 53.5151 33.7387 55.4919 32.2931C56.8714 31.2845 58.2224 30.2851 59.6875 29.3215C60.8616 28.5497 62.0476 27.8678 63.2455 27.2758Z" fill="#00A6FB"/>
<path d="M57.007 29.9514L55.2031 30.6147C54.1593 31.0085 53.1367 31.4517 52.1352 31.9443C50.4333 32.7817 48.7257 33.6056 47.0344 34.4637C41.8509 37.0929 37.1952 39.9475 32.1643 43.489C29.3525 45.4686 26.6477 47.5845 24.0499 49.8366C22.337 51.3222 20.7737 52.8265 19.3599 54.3496C18.581 55.1885 17.9412 56.058 17.2878 56.9674C16.8413 56.6022 16.4328 56.2237 16.0624 55.8319C17.7191 53.6468 19.6293 51.6332 21.793 49.791C28.085 44.4341 35.0268 39.8819 42.3096 35.9965C45.279 34.4123 48.481 32.97 51.9391 31.4343C54.2844 30.3922 56.43 29.6661 58.6975 28.9307C58.8611 28.8774 58.868 28.8933 58.7182 28.9784L57.007 29.9514Z" fill="#00A6FB"/>
<path d="M57.0023 29.9528C55.7391 30.7645 54.4509 31.5256 53.1905 32.3381C48.5854 35.3044 44.1868 38.703 39.9945 42.5339C37.8071 44.5326 35.9808 46.2606 34.5157 47.7181C30.4078 51.8053 26.7885 56.3226 23.3989 61.014C23.3856 61.033 23.359 61.0484 23.3191 61.0603C21.7683 60.0874 20.0928 59.1344 18.4644 57.8619C19.4325 56.4734 20.4806 55.1473 21.6086 53.8839C22.2206 53.1991 22.9553 52.4837 23.6372 51.7946C23.9796 51.448 24.3217 51.1177 24.6636 50.8039C26.26 49.3395 27.8563 47.793 29.544 46.4556C31.4499 44.9453 32.9925 43.7896 34.1719 42.9883C35.7559 41.9117 36.7678 41.2174 37.2077 40.9055C39.1787 39.5084 41.001 38.3364 42.6744 37.3896C43.9978 36.6411 45.3205 35.8915 46.6424 35.1406C48.0476 34.3417 49.4378 33.4301 50.7803 32.7568C51.9822 32.154 53.5172 31.5242 55.1442 30.7431C55.1647 30.7332 55.1773 30.7172 55.182 30.6954L55.1984 30.6162L57.0023 29.9528Z" fill="#F7F7F7"/>
<path d="M50.4786 30.6091C49.0501 31.1783 47.6363 31.7786 46.2373 32.4101C46.1179 32.4643 46.0207 32.4387 45.9456 32.3331C46.2494 32.3509 46.4028 32.1997 46.6239 32.1049C47.7229 31.6303 48.8275 31.1697 49.9379 30.7232C50.0984 30.6583 50.3074 30.6333 50.4786 30.6091Z" fill="#C5CBD9"/>
<path d="M55.204 30.6138L55.1876 30.693C55.1828 30.7149 55.1702 30.7308 55.1498 30.7408C53.5227 31.5219 51.9877 32.1517 50.7858 32.7544C49.4434 33.4278 48.0532 34.3394 46.648 35.1383C45.326 35.8891 44.0033 36.6388 42.6799 37.3873C41.0065 38.3341 39.1843 39.506 37.2132 40.9031C36.7733 41.2151 35.7614 41.9093 34.1774 42.9859C32.9981 43.7872 31.4555 44.943 29.5496 46.4533C27.8619 47.7907 26.2655 49.3371 24.6692 50.8015C24.3273 51.1154 23.9851 51.4456 23.6427 51.7923C22.9608 52.4813 22.2261 53.1967 21.6141 53.8815C20.4862 55.145 19.4381 56.471 18.4699 57.8596L17.2887 56.9665C17.9421 56.0571 18.5819 55.1876 19.3608 54.3487C20.7746 52.8256 22.3379 51.3213 24.0507 49.8357C26.6486 47.5836 29.3534 45.4677 32.1652 43.4881C37.1961 39.9466 41.8518 37.092 47.0353 34.4628C48.7265 33.6047 50.4342 32.7808 52.1361 31.9434C53.1376 31.4508 54.1602 31.0076 55.204 30.6138Z" fill="#C5CBD9"/>
<path d="M57.2417 31.9267L51.591 36.7871L50.7257 37.5482C49.1817 38.9215 47.5157 40.4694 45.7277 42.1917C42.9663 44.8514 40.3917 47.5957 38.0041 50.4246C37.3707 51.175 36.8486 51.8826 36.3357 52.6643C34.6459 55.2408 33.046 57.907 31.9482 60.788C31.9406 60.8078 31.9397 60.8295 31.9456 60.8499C31.9516 60.8704 31.964 60.8885 31.981 60.9015C33.1137 61.7512 34.2709 62.5097 35.4526 63.1769L34.9719 63.3959C34.9613 63.4006 34.9499 63.403 34.9383 63.403C34.9268 63.403 34.9154 63.4006 34.9048 63.3959C34.3199 63.1312 33.6544 62.9272 33.1266 62.6911C32.1408 62.2493 31.1652 61.7907 30.1999 61.3152C30.1968 61.3137 30.194 61.3117 30.1917 61.3091C30.1893 61.3065 30.1876 61.3035 30.1865 61.3002C30.1855 61.2969 30.1851 61.2934 30.1854 61.29C30.1858 61.2866 30.1868 61.2832 30.1885 61.2802C31.0109 59.7103 31.8177 58.1175 32.6936 56.576C34.6713 53.0966 37.0549 49.9222 39.8444 47.0528C43.3303 43.4678 46.9624 40.0362 50.6858 36.7885C52.7506 34.9877 54.9228 33.2285 57.2025 31.5109C57.2243 31.4942 57.2355 31.4997 57.236 31.5273L57.2417 31.9267Z" fill="#C5CBD9"/>
<path d="M57.2372 31.9216C57.2885 33.615 57.3406 35.063 57.2108 36.5645C57.0857 38.012 56.9521 39.4631 56.8099 40.9177L51.5864 36.782L57.2372 31.9216Z" fill="#F7F7F7"/>
<path d="M44.6688 33.0918C44.587 33.0538 44.4822 33.0631 44.3542 33.1197C43.1516 33.6532 41.9761 34.2317 40.7792 34.7845C38.0901 36.0256 35.6064 37.4358 32.9579 38.9138C32.2203 39.3246 31.4721 39.8118 30.6504 40.2968C29.049 41.242 26.5725 42.7934 24.6116 44.1372C24.4961 44.2157 24.419 44.3255 24.3398 44.4368C23.2823 45.1572 22.2463 45.909 21.232 46.6922C20.3656 44.4981 19.6849 42.2482 19.1898 39.9423C19.1649 39.8261 19.1121 39.7697 19.045 39.677L26.1859 34.7096C26.2172 34.6877 26.2501 34.6853 26.2843 34.7025C28.4014 35.7724 30.5191 36.8343 32.6376 37.888C33.0085 38.0721 33.2404 37.9851 33.6049 37.7732C36.9407 35.8373 40.278 33.9041 43.6167 31.9734C43.6409 31.9596 43.6638 31.9613 43.6852 31.9784L44.8978 32.9406C44.9215 32.9597 44.9196 32.9756 44.8921 32.9884L44.6688 33.0918Z" fill="#F7F7F7"/>
<path d="M44.6656 33.0966C42.7083 34.0096 40.7211 34.8955 38.7988 35.8756C33.8328 38.4071 28.9503 41.3658 24.3367 44.4416C24.4158 44.3303 24.4929 44.2204 24.6084 44.142C26.5693 42.7981 29.0459 41.2467 30.6472 40.3016C31.4689 39.8166 32.2172 39.3294 32.9547 38.9185C35.6032 37.4406 38.0869 36.0304 40.776 34.7893C41.9729 34.2365 43.1484 33.658 44.3511 33.1244C44.479 33.0678 44.5838 33.0586 44.6656 33.0966Z" fill="#C5CBD9"/>
<path d="M50.7245 37.5496L56.7397 42.308C56.6841 42.8216 56.6313 43.3335 56.5814 43.8437C56.3997 45.6959 55.8379 47.4104 54.8959 48.9873C52.0113 53.8163 47.4155 57.4127 42.466 59.9349C41.3818 60.4875 39.8039 61.2579 37.7325 62.246C36.8989 62.6436 36.1385 62.9543 35.4514 63.1783C34.2697 62.5111 33.1125 61.7527 31.9798 60.9029C31.9627 60.8899 31.9503 60.8718 31.9444 60.8514C31.9385 60.8309 31.9394 60.8092 31.947 60.7895C33.0447 57.9085 34.6447 55.2422 36.3345 52.6658C36.8473 51.884 37.3695 51.1764 38.0029 50.426C40.3905 47.5971 42.965 44.8528 45.7264 42.1932C47.5144 40.4708 49.1805 38.923 50.7245 37.5496Z" fill="#F7F7F7"/>
<path d="M19.0479 39.6743C19.115 39.767 19.1678 39.8233 19.1927 39.9396C19.6878 42.2454 20.3685 44.4954 21.2349 46.6895C19.542 48.0557 17.9036 49.4849 16.3196 50.9771C15.2104 49.4564 14.2196 47.8636 13.6861 46.0418C13.455 45.2522 13.363 44.4883 13.246 43.7058L19.0479 39.6743Z" fill="#C5CBD9"/>
<path d="M13.2483 43.7205C13.3653 44.503 13.4573 45.2669 13.6884 46.0566C14.2219 47.8783 15.2127 49.4711 16.3219 50.9918L14.6791 52.6189C14.6611 52.6365 14.6444 52.6353 14.6292 52.6153C13.8089 51.5496 13.1273 50.4005 12.5842 49.168C11.9822 47.8027 11.7639 46.3476 11.607 44.8761C11.6041 44.8523 11.6127 44.8337 11.6327 44.8204L13.2483 43.7205Z" fill="#00A6FB"/>
<path d="M74.6781 50.0577C74.743 49.8303 74.8026 49.5488 74.8567 49.2131C74.9108 48.8775 74.9596 48.4607 75.0029 47.9626C75.0462 47.4646 75.0787 46.8745 75.1003 46.1924C75.122 45.4994 75.1328 44.6928 75.1328 43.7725V33.1998C75.1328 32.2795 75.122 31.4783 75.1003 30.7962C75.0787 30.1033 75.0462 29.5078 75.0029 29.0097C74.9596 28.5009 74.9108 28.0786 74.8567 27.743C74.8026 27.4073 74.743 27.1258 74.6781 26.8984V26.8335H78.5596V26.8984C78.4946 27.1258 78.4297 27.4073 78.3647 27.743C78.3106 28.0786 78.2618 28.5009 78.2185 29.0097C78.186 29.5078 78.1536 30.1033 78.1211 30.7962C78.0994 31.4783 78.0886 32.2795 78.0886 33.1998V43.7725C78.0886 44.6928 78.0994 45.4994 78.1211 46.1924C78.1536 46.8745 78.186 47.4646 78.2185 47.9626C78.2618 48.4607 78.3106 48.8775 78.3647 49.2131C78.4297 49.5488 78.4946 49.8303 78.5596 50.0577V50.1226H74.6781V50.0577ZM96.2847 50.35H95.6513L82.7399 37.6498V43.4315C82.7399 44.4059 82.7453 45.2558 82.7562 45.9812C82.767 46.7067 82.7832 47.3346 82.8049 47.8652C82.8374 48.3849 82.8753 48.8234 82.9186 49.1807C82.9727 49.538 83.0377 49.8303 83.1135 50.0577V50.1226H80.6774V50.0577C80.7532 49.8303 80.8181 49.538 80.8723 49.1807C80.9264 48.8234 80.9697 48.3849 81.0022 47.8652C81.0347 47.3346 81.0563 46.7067 81.0671 45.9812C81.078 45.2558 81.0834 44.4059 81.0834 43.4315V39.3388C81.0834 38.3644 81.078 37.5198 81.0671 36.8053C81.0563 36.0798 81.0347 35.4573 81.0022 34.9376C80.9697 34.407 80.9264 33.9631 80.8723 33.6058C80.8181 33.2485 80.7532 32.9562 80.6774 32.7288V32.6639H81.6843L94.6119 45.4291V39.3388C94.6119 38.3644 94.6065 37.5198 94.5956 36.8053C94.5848 36.0798 94.5632 35.4573 94.5307 34.9376C94.509 34.407 94.4765 33.9631 94.4332 33.6058C94.3899 33.2485 94.3304 32.9562 94.2546 32.7288V32.6639H96.6744V32.7288C96.5987 32.9562 96.5337 33.2485 96.4796 33.6058C96.4362 33.9631 96.3984 34.407 96.3659 34.9376C96.3334 35.4573 96.3117 36.0798 96.3009 36.8053C96.2901 37.5198 96.2847 38.3644 96.2847 39.3388V50.35ZM106.36 36.0582H106.036C105.971 35.8741 105.862 35.6413 105.711 35.3598C105.57 35.0783 105.375 34.8022 105.126 34.5316C104.888 34.2609 104.59 34.0335 104.233 33.8495C103.876 33.6546 103.448 33.5571 102.95 33.5571C102.571 33.5571 102.23 33.6221 101.927 33.752C101.634 33.8711 101.385 34.0389 101.18 34.2555C100.974 34.472 100.817 34.7319 100.709 35.035C100.6 35.3274 100.546 35.6468 100.546 35.9932C100.546 36.5562 100.714 37.0922 101.05 37.601C101.396 38.1099 101.824 38.6188 102.333 39.1277C102.842 39.6257 103.394 40.1292 103.989 40.6381C104.585 41.1469 105.137 41.6775 105.646 42.2296C106.155 42.7818 106.577 43.3665 106.913 43.9836C107.259 44.6008 107.432 45.2612 107.432 45.965C107.432 46.4847 107.335 47.0206 107.14 47.5728C106.956 48.125 106.653 48.6231 106.23 49.067C105.808 49.5109 105.267 49.8736 104.606 50.1551C103.946 50.4474 103.145 50.5936 102.203 50.5936C101.683 50.5936 101.185 50.5503 100.709 50.4637C100.243 50.3771 99.81 50.2688 99.4094 50.1389C99.0196 50.0198 98.6677 49.8898 98.3537 49.7491C98.0506 49.5975 97.7961 49.4568 97.5904 49.3268L97.8828 46.2573H98.2238C98.3321 46.6363 98.4891 47.0152 98.6948 47.3942C98.9113 47.7731 99.1712 48.1196 99.4743 48.4336C99.7883 48.7367 100.151 48.9858 100.562 49.1807C100.985 49.3647 101.467 49.4568 102.008 49.4568C102.387 49.4568 102.744 49.3972 103.08 49.2781C103.415 49.1482 103.702 48.9695 103.941 48.7422C104.19 48.5148 104.384 48.2387 104.525 47.9139C104.666 47.5782 104.736 47.2047 104.736 46.7933C104.736 46.3061 104.639 45.8567 104.444 45.4453C104.249 45.023 103.989 44.6224 103.664 44.2435C103.34 43.8537 102.972 43.4802 102.56 43.1229C102.159 42.7656 101.743 42.4029 101.31 42.0348C100.876 41.6666 100.454 41.2931 100.043 40.9141C99.6422 40.5244 99.2795 40.1075 98.9546 39.6636C98.6298 39.2197 98.37 38.7487 98.1751 38.2507C97.9802 37.7418 97.8828 37.1842 97.8828 36.5779C97.8828 35.9391 98.0181 35.3652 98.2888 34.8564C98.5594 34.3475 98.9167 33.9198 99.3607 33.5734C99.8046 33.2161 100.313 32.9454 100.887 32.7613C101.461 32.5664 102.057 32.469 102.674 32.469C103.128 32.469 103.551 32.5015 103.941 32.5664C104.341 32.6314 104.698 32.7126 105.012 32.81C105.337 32.8967 105.619 32.9887 105.857 33.0861C106.095 33.1728 106.29 33.2431 106.442 33.2973L106.36 36.0582ZM121.698 39.2738C121.698 38.3102 121.693 37.4711 121.682 36.7565C121.671 36.0419 121.649 35.4248 121.617 34.9051C121.584 34.3854 121.547 33.9523 121.503 33.6058C121.46 33.2485 121.406 32.9562 121.341 32.7288V32.6639H123.728V32.7288C123.663 32.9562 123.609 33.2485 123.566 33.6058C123.522 33.9631 123.485 34.407 123.452 34.9376C123.42 35.4573 123.398 36.0798 123.387 36.8053C123.376 37.5198 123.371 38.3644 123.371 39.3388V43.9999C123.371 45.1692 123.187 46.1653 122.819 46.9882C122.461 47.811 121.963 48.4877 121.325 49.0183C120.686 49.538 119.922 49.9169 119.035 50.1551C118.158 50.4041 117.194 50.5286 116.144 50.5286C115.083 50.5286 114.097 50.4095 113.188 50.1713C112.279 49.944 111.488 49.5758 110.817 49.067C110.156 48.5581 109.631 47.8976 109.241 47.0856C108.863 46.2736 108.673 45.2883 108.673 44.1298V39.3388C108.673 38.3644 108.662 37.5198 108.641 36.8053C108.619 36.0798 108.586 35.4573 108.543 34.9376C108.5 34.407 108.451 33.9631 108.397 33.6058C108.343 33.2485 108.278 32.9562 108.202 32.7288V32.6639H111.954V32.7288C111.878 32.9562 111.813 33.2485 111.759 33.6058C111.705 33.9523 111.656 34.3854 111.613 34.9051C111.58 35.4248 111.553 36.0419 111.531 36.7565C111.51 37.4711 111.499 38.3102 111.499 39.2738V44.1298C111.499 45.0934 111.645 45.8892 111.937 46.5172C112.23 47.1343 112.614 47.627 113.091 47.9951C113.567 48.3632 114.108 48.6231 114.715 48.7746C115.321 48.9154 115.943 48.9858 116.582 48.9858C117.232 48.9858 117.86 48.9154 118.466 48.7746C119.083 48.6231 119.63 48.3632 120.107 47.9951C120.594 47.627 120.978 47.1343 121.26 46.5172C121.552 45.8892 121.698 45.0934 121.698 44.1298V39.2738ZM128.753 41.645C128.97 41.6775 129.186 41.7045 129.403 41.7262C129.63 41.737 129.847 41.7424 130.052 41.7424C131.406 41.7424 132.429 41.3797 133.122 40.6543C133.826 39.9289 134.177 38.8408 134.177 37.3899C134.177 36.1989 133.896 35.257 133.333 34.564C132.781 33.8711 131.963 33.5246 130.881 33.5246C130.534 33.5246 130.226 33.5409 129.955 33.5734C129.695 33.595 129.473 33.6221 129.289 33.6546C129.083 33.6979 128.905 33.7412 128.753 33.7845V41.645ZM131.238 42.7006C131.021 42.7331 130.805 42.7548 130.588 42.7656C130.383 42.7656 130.171 42.7656 129.955 42.7656C129.782 42.7656 129.592 42.7602 129.386 42.7493C129.181 42.7385 128.97 42.7223 128.753 42.7006V43.4964C128.753 44.46 128.764 45.3045 128.786 46.03C128.807 46.7446 128.834 47.3617 128.867 47.8814C128.91 48.4011 128.959 48.8396 129.013 49.1969C129.067 49.5434 129.132 49.8303 129.208 50.0577V50.1226H125.456V50.0577C125.532 49.8303 125.597 49.538 125.651 49.1807C125.716 48.8234 125.765 48.3849 125.797 47.8652C125.841 47.3346 125.873 46.7067 125.895 45.9812C125.916 45.2558 125.927 44.4059 125.927 43.4315V39.3388C125.927 38.3644 125.916 37.5198 125.895 36.8053C125.873 36.0798 125.841 35.4573 125.797 34.9376C125.765 34.407 125.716 33.9631 125.651 33.6058C125.597 33.2485 125.532 32.9562 125.456 32.7288V32.6639C125.629 32.6747 125.813 32.6855 126.008 32.6964C126.171 32.7072 126.349 32.718 126.544 32.7288C126.75 32.7288 126.956 32.7288 127.161 32.7288C127.508 32.7288 128.022 32.6964 128.704 32.6314C129.386 32.5664 130.188 32.534 131.108 32.534C132.039 32.534 132.884 32.6476 133.641 32.875C134.41 33.1024 135.065 33.4272 135.607 33.8495C136.159 34.2717 136.581 34.786 136.873 35.3923C137.177 35.9986 137.328 36.6753 137.328 37.4224C137.328 38.0071 137.247 38.543 137.085 39.0302C136.922 39.5066 136.695 39.9397 136.402 40.3295C136.11 40.7084 135.764 41.0441 135.363 41.3364C134.962 41.6287 134.518 41.8832 134.031 42.0997L137.426 46.8907C137.718 47.2805 138.01 47.654 138.303 48.0113C138.606 48.3686 138.893 48.688 139.163 48.9695C139.434 49.251 139.688 49.4892 139.927 49.6841C140.165 49.8682 140.365 49.9927 140.528 50.0577V50.1226H136.272C136.272 50.0252 136.202 49.8574 136.061 49.6192C135.931 49.3701 135.774 49.1157 135.59 48.8558C135.417 48.5852 135.239 48.3253 135.054 48.0763C134.881 47.8273 134.751 47.6432 134.665 47.5241L131.238 42.7006ZM139.56 32.6639C140.621 32.6639 141.709 32.6639 142.824 32.6639C143.939 32.6531 144.973 32.6422 145.926 32.6314C146.879 32.6097 147.696 32.5881 148.378 32.5664C149.071 32.5448 149.526 32.5123 149.743 32.469L149.109 34.223C148.817 34.1472 148.487 34.0768 148.118 34.0119C147.794 33.9577 147.398 33.909 146.933 33.8657C146.478 33.8116 145.948 33.7845 145.341 33.7845C145.125 33.7845 144.876 33.7953 144.594 33.817C144.313 33.8278 144.042 33.844 143.782 33.8657C143.479 33.8873 143.17 33.909 142.856 33.9307V40.3457C143.733 40.3349 144.524 40.3132 145.228 40.2808C145.931 40.2483 146.532 40.205 147.03 40.1508C147.615 40.1075 148.129 40.048 148.573 39.9722L148.183 41.9048C147.588 41.829 146.987 41.7641 146.381 41.7099C145.861 41.6558 145.287 41.6125 144.659 41.58C144.031 41.5367 143.43 41.5151 142.856 41.5151V48.8883C143.863 48.8883 144.789 48.8504 145.634 48.7746C146.478 48.688 147.214 48.596 147.842 48.4986C148.579 48.3795 149.244 48.2441 149.84 48.0925L149.466 50.2201C149.304 50.2092 149.039 50.193 148.671 50.1713C148.313 50.1605 147.934 50.1497 147.534 50.1389C147.144 50.1389 146.776 50.1334 146.429 50.1226C146.083 50.1226 145.845 50.1226 145.715 50.1226H139.56V50.0577C139.635 49.8303 139.7 49.538 139.754 49.1807C139.819 48.8234 139.868 48.3849 139.901 47.8652C139.944 47.3346 139.976 46.7067 139.998 45.9812C140.02 45.2558 140.031 44.4059 140.031 43.4315V39.3388C140.031 38.3644 140.02 37.5198 139.998 36.8053C139.976 36.0798 139.944 35.4573 139.901 34.9376C139.868 34.407 139.819 33.9631 139.754 33.6058C139.7 33.2485 139.635 32.9562 139.56 32.7288V32.6639ZM157.285 28.2627C156.007 28.2627 154.854 28.3222 153.825 28.4413C152.797 28.5496 151.909 28.6687 151.162 28.7986C150.296 28.961 149.522 29.1397 148.84 29.3345L149.311 26.7035C149.44 26.7144 149.635 26.7252 149.895 26.736C150.155 26.7469 150.442 26.7577 150.756 26.7685C151.081 26.7793 151.416 26.7902 151.763 26.801C152.12 26.801 152.456 26.8064 152.77 26.8172C153.084 26.8172 153.36 26.8226 153.598 26.8335C153.847 26.8335 154.026 26.8335 154.134 26.8335H163.407C163.516 26.8335 163.689 26.8335 163.927 26.8335C164.176 26.8226 164.458 26.8172 164.772 26.8172C165.086 26.8064 165.416 26.801 165.762 26.801C166.12 26.7902 166.455 26.7793 166.769 26.7685C167.094 26.7577 167.386 26.7469 167.646 26.736C167.906 26.7252 168.101 26.7144 168.231 26.7035L168.702 29.3345C168.009 29.1397 167.229 28.961 166.363 28.7986C165.616 28.6687 164.728 28.5496 163.7 28.4413C162.671 28.3222 161.518 28.2627 160.241 28.2627V43.7725C160.241 44.6928 160.251 45.4994 160.273 46.1924C160.305 46.8745 160.338 47.4646 160.37 47.9626C160.414 48.4607 160.462 48.8775 160.517 49.2131C160.582 49.5488 160.647 49.8303 160.711 50.0577V50.1226H156.83V50.0577C156.895 49.8303 156.954 49.5488 157.009 49.2131C157.063 48.8775 157.111 48.4607 157.155 47.9626C157.198 47.4646 157.231 46.8745 157.252 46.1924C157.274 45.4994 157.285 44.6928 157.285 43.7725V28.2627ZM170.674 41.645C170.89 41.6775 171.107 41.7045 171.323 41.7262C171.551 41.737 171.767 41.7424 171.973 41.7424C173.326 41.7424 174.349 41.3797 175.042 40.6543C175.746 39.9289 176.098 38.8408 176.098 37.3899C176.098 36.1989 175.816 35.257 175.253 34.564C174.701 33.8711 173.884 33.5246 172.801 33.5246C172.455 33.5246 172.146 33.5409 171.875 33.5734C171.615 33.595 171.394 33.6221 171.209 33.6546C171.004 33.6979 170.825 33.7412 170.674 33.7845V41.645ZM173.158 42.7006C172.942 42.7331 172.725 42.7548 172.509 42.7656C172.303 42.7656 172.092 42.7656 171.875 42.7656C171.702 42.7656 171.513 42.7602 171.307 42.7493C171.101 42.7385 170.89 42.7223 170.674 42.7006V43.4964C170.674 44.46 170.684 45.3045 170.706 46.03C170.728 46.7446 170.755 47.3617 170.787 47.8814C170.831 48.4011 170.879 48.8396 170.933 49.1969C170.988 49.5434 171.052 49.8303 171.128 50.0577V50.1226H167.377V50.0577C167.452 49.8303 167.517 49.538 167.572 49.1807C167.637 48.8234 167.685 48.3849 167.718 47.8652C167.761 47.3346 167.794 46.7067 167.815 45.9812C167.837 45.2558 167.848 44.4059 167.848 43.4315V39.3388C167.848 38.3644 167.837 37.5198 167.815 36.8053C167.794 36.0798 167.761 35.4573 167.718 34.9376C167.685 34.407 167.637 33.9631 167.572 33.6058C167.517 33.2485 167.452 32.9562 167.377 32.7288V32.6639C167.55 32.6747 167.734 32.6855 167.929 32.6964C168.091 32.7072 168.27 32.718 168.465 32.7288C168.671 32.7288 168.876 32.7288 169.082 32.7288C169.428 32.7288 169.943 32.6964 170.625 32.6314C171.307 32.5664 172.108 32.534 173.028 32.534C173.96 32.534 174.804 32.6476 175.562 32.875C176.331 33.1024 176.986 33.4272 177.527 33.8495C178.079 34.2717 178.502 34.786 178.794 35.3923C179.097 35.9986 179.249 36.6753 179.249 37.4224C179.249 38.0071 179.167 38.543 179.005 39.0302C178.843 39.5066 178.615 39.9397 178.323 40.3295C178.031 40.7084 177.684 41.0441 177.283 41.3364C176.883 41.6287 176.439 41.8832 175.952 42.0997L179.346 46.8907C179.638 47.2805 179.931 47.654 180.223 48.0113C180.526 48.3686 180.813 48.688 181.084 48.9695C181.354 49.251 181.609 49.4892 181.847 49.6841C182.085 49.8682 182.286 49.9927 182.448 50.0577V50.1226H178.193C178.193 50.0252 178.123 49.8574 177.982 49.6192C177.852 49.3701 177.695 49.1157 177.511 48.8558C177.338 48.5852 177.159 48.3253 176.975 48.0763C176.802 47.8273 176.672 47.6432 176.585 47.5241L173.158 42.7006ZM181.48 32.6639C182.541 32.6639 183.629 32.6639 184.744 32.6639C185.86 32.6531 186.894 32.6422 187.846 32.6314C188.799 32.6097 189.617 32.5881 190.299 32.5664C190.992 32.5448 191.446 32.5123 191.663 32.469L191.03 34.223C190.737 34.1472 190.407 34.0768 190.039 34.0119C189.714 33.9577 189.319 33.909 188.853 33.8657C188.399 33.8116 187.868 33.7845 187.262 33.7845C187.045 33.7845 186.796 33.7953 186.515 33.817C186.233 33.8278 185.962 33.844 185.703 33.8657C185.399 33.8873 185.091 33.909 184.777 33.9307V40.3457C185.654 40.3349 186.444 40.3132 187.148 40.2808C187.852 40.2483 188.453 40.205 188.951 40.1508C189.535 40.1075 190.05 40.048 190.494 39.9722L190.104 41.9048C189.508 41.829 188.907 41.7641 188.301 41.7099C187.781 41.6558 187.208 41.6125 186.58 41.58C185.952 41.5367 185.351 41.5151 184.777 41.5151V48.8883C185.784 48.8883 186.71 48.8504 187.554 48.7746C188.399 48.688 189.135 48.596 189.763 48.4986C190.499 48.3795 191.165 48.2441 191.76 48.0925L191.387 50.2201C191.224 50.2092 190.959 50.193 190.591 50.1713C190.234 50.1605 189.855 50.1497 189.454 50.1389C189.064 50.1389 188.696 50.1334 188.35 50.1226C188.003 50.1226 187.765 50.1226 187.635 50.1226H181.48V50.0577C181.556 49.8303 181.621 49.538 181.675 49.1807C181.74 48.8234 181.789 48.3849 181.821 47.8652C181.864 47.3346 181.897 46.7067 181.919 45.9812C181.94 45.2558 181.951 44.4059 181.951 43.4315V39.3388C181.951 38.3644 181.94 37.5198 181.919 36.8053C181.897 36.0798 181.864 35.4573 181.821 34.9376C181.789 34.407 181.74 33.9631 181.675 33.6058C181.621 33.2485 181.556 32.9562 181.48 32.7288V32.6639ZM193.359 39.3388C193.359 38.3644 193.348 37.5198 193.326 36.8053C193.304 36.0798 193.272 35.4573 193.229 34.9376C193.196 34.407 193.147 33.9631 193.082 33.6058C193.028 33.2485 192.963 32.9562 192.888 32.7288V32.6639H196.639V32.7288C196.563 32.9562 196.498 33.2485 196.444 33.6058C196.39 33.9631 196.341 34.407 196.298 34.9376C196.266 35.4573 196.239 36.0798 196.217 36.8053C196.195 37.5198 196.184 38.3644 196.184 39.3388V40.4107L203.606 34.3204C204.018 33.9848 204.326 33.687 204.532 33.4272C204.749 33.1673 204.857 32.9129 204.857 32.6639H208.722V32.7288C208.235 32.8479 207.732 33.0645 207.212 33.3785C206.703 33.6925 206.162 34.0876 205.588 34.564L199.108 39.8747L205.864 46.8907C206.762 47.8327 207.52 48.5527 208.138 49.0507C208.766 49.538 209.247 49.8736 209.583 50.0577V50.1226H205.165C205.046 49.9061 204.792 49.5867 204.402 49.1644C204.012 48.7422 203.498 48.1954 202.859 47.5241L196.184 40.5731V43.4315C196.184 44.4059 196.195 45.2558 196.217 45.9812C196.239 46.7067 196.266 47.3346 196.298 47.8652C196.341 48.3849 196.39 48.8234 196.444 49.1807C196.498 49.538 196.563 49.8303 196.639 50.0577V50.1226H192.888V50.0577C192.963 49.8303 193.028 49.538 193.082 49.1807C193.147 48.8234 193.196 48.3849 193.229 47.8652C193.272 47.3346 193.304 46.7067 193.326 45.9812C193.348 45.2558 193.359 44.4059 193.359 43.4315V39.3388Z" fill="white"/>
</svg>
