<svg width="200" height="200" viewBox="0 0 200 200" fill="none" xmlns="http://www.w3.org/2000/svg">
<rect width="200" height="200" rx="100" fill="#023047"/>
<path d="M169.009 72.7659C166.083 74.212 163.186 75.8776 160.318 77.7627C156.74 80.1166 153.44 82.5575 150.07 85.0211C145.242 88.5521 140.384 92.3497 135.498 96.4139C125.783 104.495 116.553 112.833 107.808 121.428C104.882 124.303 101.175 128.345 97.1987 132.64C94.2368 135.838 91.4747 139.203 88.9124 142.734C85.4278 147.538 82.2359 151.989 79.2305 156.838C79.198 156.89 79.209 156.932 79.2636 156.962C85.9313 160.699 92.6357 164.318 99.617 167.442C99.6544 167.458 99.6947 167.467 99.7355 167.467C99.7762 167.467 99.8166 167.459 99.854 167.443C105.732 164.922 110.132 162.513 117.007 158.77C122.892 155.566 127.948 152.209 133.322 148.773C137.596 146.041 141.769 142.634 145.842 138.553C149.209 135.176 151.917 131.287 153.966 126.886C156.017 122.477 156.567 117.161 156.973 112.884C157.017 112.427 156.93 112.483 156.665 112.263C155.509 111.298 154.321 110.371 153.102 109.483" stroke="#756256" stroke-width="0.149042"/>
<path d="M153.122 109.472L138.429 97.849" stroke="#7C8FB0" stroke-width="0.149042"/>
<path d="M138.429 97.8743L140.542 96.0153" stroke="#6379A1" stroke-width="0.149042"/>
<path d="M140.534 96.0153L153.292 106.117" stroke="#7C8FB0" stroke-width="0.149042"/>
<path d="M153.3 106.107L157.314 109.389C157.327 109.399 157.342 109.406 157.357 109.408C157.373 109.41 157.389 109.407 157.403 109.401C157.418 109.395 157.43 109.385 157.439 109.372C157.449 109.359 157.454 109.344 157.456 109.328C158.116 100.699 157.893 91.8114 157.814 83.0808C157.807 82.4031 157.903 81.4989 157.856 80.6904C157.851 80.6026 157.868 80.5147 157.907 80.4351C157.945 80.3555 158.003 80.2869 158.076 80.2357L160.52 78.5091" stroke="#756256" stroke-width="0.149042"/>
<path d="M153.754 79.3013L157.933 76.9248C158.299 76.7169 158.282 76.678 157.883 76.8081C152.344 78.6044 147.103 80.378 141.375 82.9235C132.928 86.6746 125.107 90.1975 117.854 94.0672C100.065 103.557 83.109 114.677 67.7402 127.761C62.4553 132.261 57.7894 137.179 53.7427 142.517" stroke="#756256" stroke-width="0.149042"/>
<path d="M153.759 79.3047L149.353 80.925" stroke="#F0CA9D" stroke-width="0.149042"/>
<path d="M149.37 80.8962C146.82 81.8579 144.322 82.9405 141.876 84.1438C137.719 86.1892 133.548 88.2016 129.417 90.2975C116.756 96.7196 105.384 103.692 93.0956 112.343C86.2275 117.178 79.6207 122.346 73.2753 127.847C69.0915 131.476 65.273 135.15 61.8198 138.871C59.9172 140.92 58.3544 143.043 56.7584 145.265" stroke="#D7B48E" stroke-width="0.149042"/>
<path d="M59.63 147.446C61.9949 144.055 64.5549 140.816 67.31 137.73C68.8049 136.057 70.5995 134.309 72.2651 132.626C73.1014 131.78 73.9371 130.973 74.7723 130.206C78.6715 126.629 82.5707 122.852 86.693 119.585C91.3484 115.896 95.1164 113.073 97.997 111.116C101.866 108.486 104.338 106.791 105.412 106.029C110.227 102.616 114.678 99.7535 118.765 97.4409C121.998 95.6127 125.228 93.7815 128.457 91.9475C131.89 89.9961 135.285 87.7695 138.564 86.1248C141.5 84.6525 145.25 83.1141 149.224 81.2063C149.274 81.1819 149.304 81.143 149.316 81.0896L149.356 80.8962" stroke="#DEE1E8" stroke-width="0.149042"/>
<path d="M153.3 106.088C153.647 102.534 153.974 98.9901 154.279 95.4544C154.596 91.7869 154.469 88.2501 154.344 84.1139" stroke="#F0CA9D" stroke-width="0.149042"/>
<path d="M154.324 84.126L154.31 83.1503C154.309 83.0829 154.282 83.0696 154.228 83.1102C148.66 87.3057 143.354 91.6027 138.311 96.0014C129.216 103.934 120.344 112.316 111.83 121.073C105.016 128.082 99.194 135.835 94.3633 144.334C92.2237 148.099 90.2532 151.99 88.2443 155.825C88.2402 155.832 88.2376 155.84 88.2368 155.848C88.236 155.857 88.2369 155.865 88.2395 155.873C88.2421 155.881 88.2464 155.889 88.252 155.895C88.2576 155.901 88.2645 155.906 88.2722 155.91C90.6301 157.071 93.013 158.192 95.4208 159.271C96.7101 159.847 98.3357 160.346 99.7644 160.992C99.7901 161.004 99.818 161.01 99.8462 161.01C99.8745 161.01 99.9024 161.004 99.9281 160.992L101.102 160.457" stroke="#D7B48E" stroke-width="0.149042"/>
<path d="M101.104 160.463C102.782 159.916 104.64 159.157 106.676 158.186C111.735 155.772 115.589 153.89 118.238 152.541C130.327 146.38 141.553 137.595 148.599 125.8C150.9 121.949 152.272 117.761 152.716 113.237C152.838 111.99 152.967 110.74 153.103 109.485" stroke="#F0CA9D" stroke-width="0.149042"/>
<path d="M154.336 84.1139L140.534 95.9858" stroke="#DEE1E8" stroke-width="0.149042"/>
<path d="M138.408 97.849C134.637 101.203 130.567 104.984 126.2 109.191C119.455 115.688 113.166 122.391 107.334 129.301C105.787 131.134 104.512 132.862 103.259 134.772C99.1316 141.065 95.2237 147.577 92.5423 154.614C92.5238 154.663 92.5216 154.716 92.536 154.766C92.5505 154.816 92.5808 154.86 92.6225 154.891C95.3892 156.967 98.2158 158.82 101.102 160.449" stroke="#DEE1E8" stroke-width="0.149042"/>
<path d="M98.9188 34.4432C98.4832 34.7614 97.8449 35.2893 97.004 36.0269C89.0417 43.0204 81.0794 50.0169 73.1172 57.0162C73.0707 57.0569 73.0713 57.097 73.1189 57.1364L82.0516 64.5377C82.0703 64.5532 82.093 64.5632 82.117 64.5663C82.1411 64.5693 82.1656 64.5655 82.1875 64.5551C83.7335 63.8501 85.2534 63.1334 86.7471 62.4051C87.5503 62.0131 88.1793 62.4191 88.7072 63.0933C95.2791 71.4679 101.857 79.8431 108.442 88.2188C108.458 88.2391 108.481 88.253 108.506 88.2578C108.531 88.2626 108.558 88.258 108.58 88.245L119.051 82.1783" stroke="#6379A1" stroke-width="0.149042"/>
<path d="M119.049 82.1937C120.029 81.5351 121.369 80.8486 122.457 81.6884C123.552 82.534 124.986 83.6717 126.758 85.1016" stroke="#7C8FB0" stroke-width="0.149042"/>
<path d="M126.758 85.0843C126.942 85.3421 127.179 85.4049 127.471 85.2724C130.888 83.7299 134.341 82.2635 137.83 80.8732" stroke="#6379A1" stroke-width="0.149042"/>
<path d="M137.824 80.8883C142.733 79.0369 147.696 77.3289 152.711 75.7643" stroke="#7C8FB0" stroke-width="0.149042"/>
<path d="M152.729 75.7547L156.653 74.6275C156.779 74.5915 156.789 74.5369 156.681 74.4637C156.525 74.358 156.365 74.2134 156.202 74.0299C152.017 69.3327 147.831 64.6366 143.643 59.9418C143.636 59.9348 143.187 59.3953 142.295 58.3232C141.734 57.6506 141.12 57.0292 140.453 56.4589" stroke="#756256" stroke-width="0.149042"/>
<path d="M140.444 56.4692L136.648 52.265C136.607 52.2197 136.562 52.2163 136.514 52.2546C134.255 54.048 132.007 55.8594 129.771 57.6888C128.931 58.377 128.276 58.6453 127.403 57.8787C118.219 49.8224 109.037 41.7602 99.8559 33.6923C99.8095 33.6516 99.7607 33.6481 99.7096 33.6818C99.3414 33.9165 99.0777 34.1749 98.9186 34.4571" stroke="#7C8FB0" stroke-width="0.149042"/>
<path d="M140.453 56.4589C141.339 57.5194 141.946 58.3063 142.272 58.8197C145.818 64.3968 149.612 69.9285 152.729 75.7547" stroke="#F0CA9D" stroke-width="0.149042"/>
<path d="M137.83 80.8732C137.412 80.9324 136.902 80.9934 136.51 81.1519C133.798 82.2426 131.099 83.3675 128.415 84.5267C127.875 84.7585 127.5 85.1278 126.758 85.0843" stroke="#DEE1E8" stroke-width="0.149042"/>
<path d="M119.04 82.1783C118.905 81.8856 118.796 81.6986 118.712 81.6173C108.701 71.9285 102.608 59.9171 99.9112 46.2803C99.1713 42.5367 98.8368 38.591 98.9077 34.4432" stroke="#DEE1E8" stroke-width="0.149042"/>
<path d="M58.9678 56.597C58.4137 57.0466 57.9079 57.5472 57.4503 58.0989C56.787 58.8992 56.4519 59.3034 56.445 59.3115C51.7605 64.5628 47.0714 69.8111 42.3777 75.0566C42.2755 75.1704 42.0612 75.3278 41.7348 75.5287C41.6837 75.5601 41.6581 75.606 41.6581 75.6664C41.6802 83.4474 41.6761 91.229 41.6459 99.0112C41.6268 103.543 41.9265 108.096 42.3951 112.605C42.4009 112.665 42.4288 112.678 42.4788 112.643L46.7038 109.648" stroke="#756256" stroke-width="0.149042"/>
<path d="M46.702 109.646L60.94 99.7289" stroke="#6379A1" stroke-width="0.149042"/>
<path d="M60.9447 99.7433C66.3969 95.9474 71.8509 92.1551 77.3065 88.3662C78.0435 87.8539 78.6255 87.7616 79.4043 88.1501C84.6288 90.7554 89.8545 93.3747 95.0814 96.0078C95.1337 96.0334 95.1848 96.0316 95.2347 96.0026L106.042 89.7339C106.083 89.7095 106.089 89.6787 106.06 89.6415L87.0686 65.4568C87.0024 65.3709 86.9199 65.3512 86.8212 65.3976C85.4785 66.0434 84.1073 66.6805 82.7076 67.3089C81.3103 67.9361 80.7667 66.957 79.8451 66.1904C74.6693 61.8857 69.4715 57.5962 64.2516 53.3218" stroke="#7C8FB0" stroke-width="0.149042"/>
<path d="M64.2651 53.3185L63.0072 52.301C62.9549 52.2592 62.9056 52.2632 62.8591 52.3132L58.9843 56.6062" stroke="#6379A1" stroke-width="0.149042"/>
<path d="M64.2464 53.3218C63.9735 54.2894 63.6988 55.2465 63.4223 56.1931C59.2966 70.3323 58.3511 84.6963 60.5859 99.2851C60.6265 99.5511 60.7444 99.7038 60.9396 99.7433" stroke="#DEE1E8" stroke-width="0.149042"/>
<path d="M46.6939 109.648C46.6567 109.538 46.6259 109.305 46.6016 108.951C46.3809 105.754 46.0307 101.842 45.551 97.2149C45.3802 95.5667 45.2443 93.7774 45.246 92.3993C45.2565 87.6579 45.3192 83.9445 45.4342 81.2591C45.5841 77.7554 47.2061 75.0914 49.1941 71.8682C52.3546 66.7406 55.5604 61.566 58.9579 56.597" stroke="#D7B48E" stroke-width="0.149042"/>
<path d="M61.0584 103.073L46.8866 112.921" stroke="#6379A1" stroke-width="0.149042"/>
<path d="M46.8894 112.922L42.9431 115.609C42.8943 115.641 42.8734 115.686 42.8804 115.744C43.2637 119.339 43.7968 122.893 45.2673 126.228C46.5938 129.238 48.2588 132.045 50.2625 134.648C50.2996 134.697 50.3403 134.7 50.3844 134.657L54.3969 130.683" stroke="#756256" stroke-width="0.149042"/>
<path d="M54.3914 130.66C58.2605 127.016 62.2625 123.525 66.3975 120.188" stroke="#6379A1" stroke-width="0.149042"/>
<path d="M66.3881 120.196C68.8657 118.283 71.396 116.446 73.9793 114.687" stroke="#7C8FB0" stroke-width="0.149042"/>
<path d="M73.9736 114.673C85.2428 107.161 97.1687 99.9337 109.299 93.7503C113.994 91.3564 118.848 89.1925 123.629 86.9624" stroke="#6379A1" stroke-width="0.149042"/>
<path d="M123.634 86.995L124.179 86.7424C124.247 86.7111 124.251 86.6721 124.193 86.6257L121.231 84.2753C121.179 84.2335 121.123 84.2295 121.064 84.2631C112.909 88.9789 104.757 93.7011 96.6093 98.4297C95.719 98.9471 95.1528 99.1597 94.2468 98.7102C89.0722 96.1362 83.8993 93.5426 78.7282 90.9291C78.6446 90.8873 78.5644 90.8931 78.4878 90.9466L61.0457 103.08" stroke="#7C8FB0" stroke-width="0.149042"/>
<path d="M123.629 86.9837C123.429 86.8908 123.173 86.9134 122.861 87.0517C119.923 88.3549 117.052 89.7679 114.128 91.1182C107.56 94.1497 101.493 97.5942 95.024 101.204C93.2225 102.208 91.3948 103.398 89.3877 104.583C85.4762 106.891 79.427 110.681 74.6374 113.963C74.3552 114.155 74.167 114.423 73.9736 114.695" stroke="#DEE1E8" stroke-width="0.149042"/>
<path d="M66.3876 120.209C64.2713 114.849 62.6085 109.354 61.3994 103.721C61.3384 103.437 61.2095 103.3 61.0457 103.073" stroke="#DEE1E8" stroke-width="0.149042"/>
<path d="M54.3941 130.683C51.6849 126.968 49.2648 123.078 47.9616 118.628C47.3971 116.699 47.1723 114.833 46.8866 112.922" stroke="#D7B48E" stroke-width="0.149042"/>
<path d="M169.014 72.7791C166.088 74.2252 163.191 75.8908 160.323 77.776C156.745 80.1298 153.445 82.5708 150.075 85.0343C145.247 88.5654 140.389 92.363 135.503 96.4271C125.788 104.508 116.558 112.846 107.813 121.441C104.887 124.316 101.18 128.358 97.2038 132.653C94.2419 135.852 91.4798 139.217 88.9174 142.748C85.4329 147.551 82.241 152.003 79.2355 156.851C79.203 156.904 79.2141 156.945 79.2686 156.975C85.9364 160.712 92.6407 164.331 99.6221 167.455C99.6594 167.471 99.6997 167.48 99.7405 167.48C99.7813 167.481 99.8216 167.473 99.859 167.457C105.738 164.936 110.137 162.526 117.012 158.784C122.897 155.579 127.953 152.222 133.327 148.786C137.601 146.054 141.774 142.648 145.847 138.566C149.214 135.19 151.922 131.301 153.971 126.9C156.022 122.49 156.572 117.174 156.978 112.897C157.022 112.44 156.935 112.496 156.67 112.277C155.514 111.311 154.326 110.385 153.107 109.496L138.414 97.8732L140.528 96.0142L153.286 106.116L157.301 109.398C157.313 109.408 157.328 109.415 157.343 109.417C157.359 109.419 157.375 109.417 157.389 109.41C157.404 109.404 157.416 109.394 157.426 109.381C157.435 109.368 157.44 109.353 157.442 109.337C158.102 100.708 157.879 91.8205 157.801 83.0899C157.794 82.4122 157.889 81.508 157.842 80.6995C157.837 80.6117 157.854 80.5238 157.893 80.4442C157.931 80.3646 157.989 80.296 158.062 80.2448L160.506 78.5182C160.531 84.5291 160.485 90.526 160.538 96.5195C160.609 104.546 160.005 112.575 158.726 120.608C156.738 133.099 146.352 143.126 136.395 150.025C133.585 151.972 129.343 154.671 123.667 158.123C118.421 161.315 112.844 164.162 107.389 166.979C105.119 168.152 102.366 169.307 100.363 170.263C100.001 170.435 99.6592 170.45 99.3363 170.309C96.8257 169.204 94.3203 168.112 91.8793 166.856C86.5061 164.086 80.8704 161.024 74.9722 157.668C73.6469 156.915 72.4853 156.122 71.4876 155.29C71.5851 155.261 71.6502 155.223 71.6827 155.177C79.9621 143.718 88.8025 132.684 98.8363 122.701C102.415 119.141 106.876 114.92 112.219 110.038C122.459 100.681 133.203 92.3792 144.451 85.1337C147.53 83.1492 150.676 81.2902 153.762 79.3074L157.942 76.931C158.308 76.7231 158.291 76.6841 157.891 76.8142C152.352 78.6105 147.112 80.3842 141.383 82.9297C132.936 86.6808 125.115 90.2037 117.862 94.0733C100.073 103.564 83.1174 114.683 67.7486 127.767C62.4637 132.267 57.7978 137.186 53.7511 142.523C49.2751 138.347 45.7034 133.663 43.1301 128.227C41.8565 125.539 41.1404 122.933 40.6665 119.887C39.7431 113.939 39.2012 108.251 39.0409 102.825C38.8144 95.1988 39.0845 86.0675 38.9974 77.7028C38.9904 76.9223 39.1141 75.8542 39.0339 74.9151C39.0212 74.7641 39.063 74.6329 39.1594 74.5214C40.764 72.6606 42.6753 70.7668 44.1458 69.1203C49.7525 62.8504 55.3598 56.5805 60.9676 50.3106C61.9816 49.1764 62.7012 48.5125 64.0706 49.6119C66.3728 51.4611 68.6587 53.3102 70.9283 55.1594C70.9535 55.1799 70.9851 55.1909 71.0174 55.1902C71.0496 55.1896 71.0805 55.1774 71.1043 55.1559C80.1317 47.2169 89.1701 39.2755 98.2195 31.3319C99.1586 30.5078 100.077 30.2482 101.072 31.1228C110.186 39.1385 119.301 47.1541 128.415 55.1698C128.46 55.2093 128.507 55.2105 128.555 55.1733C130.875 53.3125 133.19 51.4541 135.498 49.598C136.43 48.8476 137.282 48.9034 138.053 49.7653C143.902 56.3035 149.749 62.8428 155.595 69.3834C156.804 70.7354 158.327 72.2216 159.639 73.6886C159.681 73.7365 159.737 73.7713 159.799 73.7889C159.86 73.8065 159.926 73.8061 159.987 73.7879C162.507 73.0538 165.069 72.4637 167.676 72.0177C168.01 71.9596 168.286 71.9428 168.502 71.9672C169.148 72.0369 169.318 72.3075 169.014 72.7791ZM98.9112 34.4715C98.4756 34.7897 97.8374 35.3176 96.9964 36.0552C89.0342 43.0487 81.0719 50.0452 73.1096 57.0445C73.0632 57.0852 73.0638 57.1252 73.1114 57.1647L82.0441 64.566C82.0627 64.5815 82.0854 64.5915 82.1095 64.5945C82.1336 64.5976 82.1581 64.5938 82.18 64.5834C83.726 63.8783 85.2459 63.1617 86.7396 62.4334C87.5428 62.0414 88.1717 62.4473 88.6997 63.1216C95.2716 71.4962 101.85 79.8714 108.435 88.2471C108.45 88.2674 108.473 88.2813 108.498 88.2861C108.524 88.2909 108.55 88.2863 108.572 88.2732L119.043 82.2066C120.024 81.548 121.364 80.8616 122.451 81.7013C123.547 82.5469 124.981 83.6846 126.753 85.1145C126.937 85.3723 127.174 85.4351 127.466 85.3027C130.883 83.7601 134.336 82.2937 137.825 80.9034C142.735 79.0519 147.698 77.3439 152.713 75.7793L156.637 74.6521C156.763 74.6161 156.773 74.5615 156.665 74.4883C156.509 74.3826 156.349 74.238 156.186 74.0545C152.001 69.3573 147.814 64.6612 143.627 59.9663C143.62 59.9594 143.171 59.4198 142.279 58.3477C141.718 57.6752 141.104 57.0538 140.437 56.4835L136.64 52.2794C136.6 52.2341 136.555 52.2306 136.506 52.2689C134.247 54.0623 132 55.8737 129.764 57.7031C128.924 58.3913 128.269 58.6596 127.396 57.893C118.212 49.8367 109.029 41.7746 99.8486 33.7066C99.8021 33.666 99.7533 33.6625 99.7022 33.6962C99.334 33.9308 99.0703 34.1892 98.9112 34.4715ZM58.9657 56.6229C58.4117 57.0724 57.9059 57.573 57.4482 58.1247C56.785 58.925 56.4499 59.3292 56.4429 59.3374C51.7585 64.5886 47.0694 69.837 42.3757 75.0824C42.2734 75.1962 42.0591 75.3536 41.7328 75.5546C41.6816 75.5859 41.6561 75.6318 41.6561 75.6922C41.6782 83.4733 41.6741 91.2549 41.6439 99.0371C41.6247 103.569 41.9244 108.121 42.3931 112.63C42.3989 112.691 42.4268 112.704 42.4767 112.669L46.7018 109.674L60.9398 99.7567C66.392 95.9608 71.8459 92.1684 77.3016 88.3795C78.0386 87.8673 78.6205 87.7749 79.3993 88.1635C84.6239 90.7688 89.8496 93.388 95.0764 96.0212C95.1287 96.0467 95.1798 96.045 95.2298 96.016L106.037 89.7472C106.078 89.7228 106.084 89.692 106.055 89.6549L87.0636 65.4702C86.9974 65.3843 86.915 65.3645 86.8162 65.411C85.4735 66.0568 84.1023 66.6939 82.7027 67.3223C81.3054 67.9495 80.7618 66.9703 79.8401 66.2037C74.6643 61.8991 69.4665 57.6096 64.2466 53.3352L62.9887 52.3177C62.9364 52.2759 62.8871 52.28 62.8406 52.3299L58.9657 56.6229ZM61.0478 103.079L46.876 112.927L42.9297 115.613C42.8809 115.646 42.86 115.691 42.867 115.749C43.2503 119.343 43.7834 122.898 45.2539 126.232C46.5804 129.243 48.2454 132.05 50.2491 134.653C50.2862 134.702 50.3269 134.705 50.371 134.662L54.3835 130.687C58.2526 127.043 62.2546 123.552 66.3896 120.215C68.8672 118.302 71.3976 116.465 73.9808 114.705C85.2499 107.193 97.1759 99.9657 109.306 93.7824C114.001 91.3885 118.855 89.2245 123.636 86.9944L124.181 86.7418C124.249 86.7104 124.253 86.6715 124.195 86.625L121.233 84.2747C121.181 84.2329 121.125 84.2288 121.066 84.2625C112.911 88.9783 104.759 93.7005 96.6114 98.429C95.7211 98.9465 95.1548 99.159 94.2488 98.7095C89.0742 96.1356 83.9014 93.5419 78.7303 90.9285C78.6466 90.8867 78.5665 90.8925 78.4898 90.9459L61.0478 103.079Z" fill="#023047"/>
<path d="M140.449 56.4793C141.336 57.5398 141.942 58.3267 142.268 58.8401C145.814 64.4172 149.608 69.9489 152.725 75.7751C147.71 77.3397 142.747 79.0477 137.838 80.8992C137.419 80.9584 136.909 81.0194 136.517 81.178C133.805 82.2686 131.107 83.3936 128.422 84.5528C127.882 84.7845 127.508 85.1539 126.765 85.1103C124.993 83.6805 123.559 82.5428 122.464 81.6972C121.376 80.8574 120.037 81.5438 119.056 82.2024C118.921 81.9097 118.812 81.7227 118.728 81.6414C108.717 71.9526 102.624 59.9412 99.9271 46.3044C99.1872 42.5608 98.8527 38.6151 98.9235 34.4673C99.0827 34.185 99.3463 33.9266 99.7145 33.692C99.7656 33.6583 99.8144 33.6618 99.8609 33.7024C109.042 41.7704 118.224 49.8325 127.408 57.8888C128.281 58.6554 128.936 58.3871 129.776 57.6989C132.012 55.8695 134.259 54.0581 136.519 52.2647C136.567 52.2264 136.612 52.2299 136.653 52.2752L140.449 56.4793Z" fill="#F7F7F7"/>
<path d="M98.9144 34.4877C98.8436 38.6355 99.1781 42.5812 99.918 46.3248C102.615 59.9617 108.708 71.973 118.719 81.6619C118.803 81.7432 118.912 81.9302 119.047 82.2229L108.575 88.2895C108.553 88.3026 108.527 88.3071 108.502 88.3023C108.476 88.2975 108.454 88.2837 108.438 88.2634C101.853 79.8876 95.2748 71.5125 88.7029 63.1379C88.1749 62.4636 87.546 62.0577 86.7428 62.4497C85.2491 63.1779 83.7292 63.8946 82.1832 64.5997C82.1613 64.61 82.1368 64.6139 82.1127 64.6108C82.0886 64.6077 82.0659 64.5978 82.0473 64.5822L73.1146 57.181C73.067 57.1415 73.0664 57.1014 73.1128 57.0608C81.0751 50.0614 89.0374 43.065 96.9996 36.0715C97.8406 35.3339 98.4789 34.806 98.9144 34.4877Z" fill="#C5CBD9"/>
<path d="M64.2317 53.3286C63.9588 54.2962 63.6841 55.2533 63.4076 56.1999C59.2819 70.3391 58.3364 84.7031 60.5712 99.2918C60.6118 99.5578 60.7297 99.7106 60.9249 99.7501L46.6869 109.667C46.6497 109.557 46.6189 109.325 46.5945 108.97C46.3738 105.774 46.0236 101.862 45.5439 97.2342C45.3732 95.586 45.2373 93.7967 45.239 92.4185C45.2495 87.6772 45.3122 83.9638 45.4272 81.2784C45.577 77.7746 47.1991 75.1107 49.1871 71.8874C52.3476 66.7599 55.5534 61.5853 58.9508 56.6163L62.8257 52.3233C62.8722 52.2734 62.9215 52.2693 62.9738 52.3111L64.2317 53.3286Z" fill="#C5CBD9"/>
<path d="M64.2421 53.3435C69.462 57.6179 74.6599 61.9074 79.8356 66.212C80.7573 66.9786 81.3009 67.9578 82.6982 67.3306C84.0979 66.7022 85.4691 66.0651 86.8118 65.4193C86.9105 65.3728 86.993 65.3926 87.0592 65.4785L106.05 89.6632C106.079 89.7003 106.073 89.7311 106.033 89.7555L95.2253 96.0243C95.1753 96.0533 95.1242 96.055 95.072 96.0295C89.8451 93.3963 84.6194 90.7771 79.3948 88.1718C78.616 87.7833 78.0341 87.8756 77.2971 88.3878C71.8414 92.1767 66.3875 95.9691 60.9353 99.765C60.7401 99.7255 60.6222 99.5727 60.5816 99.3067C58.3468 84.718 59.2923 70.354 63.418 56.2148C63.6945 55.2681 63.9692 54.3111 64.2421 53.3435Z" fill="#F7F7F7"/>
<path d="M140.446 56.4921C141.113 57.0624 141.726 57.6838 142.287 58.3563C143.18 59.4284 143.629 59.9679 143.636 59.9749C147.823 64.6698 152.009 69.3658 156.194 74.063C156.358 74.2465 156.518 74.3911 156.674 74.4968C156.782 74.57 156.772 74.6246 156.646 74.6606L152.722 75.7879C149.605 69.9617 145.81 64.4299 142.265 58.8529C141.938 58.3395 141.332 57.5525 140.446 56.4921Z" fill="#00A6FB"/>
<path d="M58.9606 56.6189C55.5631 61.5879 52.3573 66.7625 49.1968 71.89C47.2088 75.1133 45.5868 77.7772 45.4369 81.2809C45.3219 83.9664 45.2592 87.6798 45.2488 92.4211C45.247 93.7993 45.3829 95.5886 45.5537 97.2368C46.0334 101.864 46.3836 105.776 46.6043 108.973C46.6287 109.327 46.6594 109.559 46.6966 109.67L42.4716 112.665C42.4216 112.7 42.3937 112.687 42.3879 112.626C41.9193 108.117 41.6196 103.565 41.6387 99.0331C41.6689 91.2509 41.673 83.4693 41.6509 75.6882C41.6509 75.6278 41.6765 75.5819 41.7276 75.5506C42.054 75.3496 42.2683 75.1922 42.3705 75.0784C47.0642 69.833 51.7533 64.5846 56.4378 59.3334C56.4447 59.3252 56.7798 58.921 57.4431 58.1207C57.9007 57.569 58.4065 57.0684 58.9606 56.6189Z" fill="#00A6FB"/>
<path d="M169.005 72.776C169.1 73.0304 169.093 73.1872 168.984 73.2464C166.108 74.8005 163.279 76.5568 160.497 78.5151L158.053 80.2417C157.98 80.2929 157.922 80.3615 157.884 80.4411C157.845 80.5207 157.828 80.6086 157.833 80.6964C157.88 81.5049 157.784 82.4091 157.791 83.0868C157.87 91.8174 158.093 100.705 157.432 109.334C157.431 109.35 157.426 109.365 157.416 109.378C157.407 109.391 157.395 109.401 157.38 109.407C157.366 109.413 157.35 109.416 157.334 109.414C157.318 109.412 157.304 109.405 157.291 109.395L153.277 106.113C153.624 102.56 153.951 99.0154 154.256 95.4797C154.573 91.8122 154.446 88.2754 154.321 84.1392L154.307 83.1635C154.306 83.0961 154.278 83.0828 154.225 83.1234C148.657 87.3189 143.351 91.6159 138.307 96.0146C129.213 103.947 120.341 112.329 111.826 121.086C105.013 128.095 99.1906 135.848 94.3598 144.347C92.2203 148.112 90.2497 152.003 88.2409 155.838C88.2367 155.845 88.2342 155.853 88.2334 155.862C88.2325 155.87 88.2335 155.878 88.2361 155.887C88.2387 155.895 88.2429 155.902 88.2486 155.908C88.2542 155.915 88.2611 155.92 88.2688 155.923C90.6267 157.085 93.0095 158.205 95.4174 159.284C96.7067 159.861 98.3322 160.359 99.7609 161.005C99.7867 161.017 99.8146 161.023 99.8428 161.023C99.871 161.023 99.8989 161.017 99.9247 161.005L101.099 160.47C102.777 159.923 104.635 159.164 106.671 158.193C111.73 155.78 115.584 153.898 118.233 152.548C130.322 146.388 141.548 137.603 148.594 125.808C150.895 121.956 152.267 117.768 152.711 113.244C152.833 111.998 152.962 110.747 153.098 109.493C154.317 110.381 155.505 111.308 156.661 112.274C156.925 112.493 157.013 112.437 156.969 112.894C156.563 117.171 156.012 122.487 153.962 126.897C151.913 131.298 149.205 135.186 145.838 138.563C141.765 142.645 137.592 146.051 133.317 148.783C127.944 152.219 122.888 155.576 117.003 158.78C110.128 162.523 105.728 164.932 99.8498 167.454C99.8124 167.47 99.772 167.478 99.7312 167.477C99.6905 167.477 99.6502 167.468 99.6128 167.452C92.6315 164.328 85.9271 160.709 79.2594 156.972C79.2048 156.942 79.1938 156.901 79.2263 156.848C82.2317 151.999 85.4236 147.548 88.9082 142.744C91.4705 139.213 94.2326 135.848 97.1945 132.65C101.17 128.355 104.878 124.313 107.803 121.438C116.548 112.843 125.779 104.505 135.494 96.424C140.38 92.3599 145.238 88.5623 150.066 85.0312C153.436 82.5676 156.736 80.1267 160.314 77.7729C163.182 75.8877 166.079 74.2221 169.005 72.776Z" fill="#00A6FB"/>
<path d="M153.767 79.3115L149.36 80.9318C146.811 81.8935 144.313 82.9761 141.867 84.1794C137.71 86.2249 133.539 88.2372 129.408 90.3332C116.746 96.7552 105.374 103.728 93.0861 112.378C86.218 117.214 79.6113 122.382 73.2658 127.883C69.082 131.512 65.2635 135.186 61.8103 138.906C59.9077 140.955 58.3449 143.079 56.7489 145.301C55.6583 144.408 54.6605 143.484 53.7557 142.527C57.8024 137.19 62.4683 132.271 67.7532 127.771C83.122 114.687 100.078 103.568 117.867 94.0773C125.12 90.2077 132.941 86.6848 141.388 82.9337C147.116 80.3882 152.357 78.6146 157.896 76.8183C158.295 76.6882 158.312 76.7271 157.946 76.935L153.767 79.3115Z" fill="#00A6FB"/>
<path d="M153.755 79.3149C150.67 81.2976 147.523 83.1566 144.445 85.1411C133.196 92.3867 122.452 100.688 112.212 110.045C106.869 114.927 102.408 119.148 98.8297 122.708C88.7959 132.692 79.9555 143.725 71.6761 155.184C71.6436 155.231 71.5786 155.269 71.481 155.298C67.6933 152.921 63.6006 150.594 59.623 147.485C61.9879 144.094 64.5479 140.855 67.303 137.769C68.7979 136.096 70.5924 134.348 72.2581 132.665C73.0944 131.819 73.9301 131.012 74.7652 130.245C78.6645 126.668 82.5637 122.891 86.686 119.624C91.3414 115.935 95.1094 113.112 97.99 111.155C101.859 108.525 104.331 106.83 105.405 106.068C110.22 102.655 114.671 99.7925 118.758 97.4799C121.991 95.6517 125.221 93.8206 128.45 91.9865C131.883 90.0352 135.278 87.8085 138.557 86.1638C141.493 84.6916 145.243 83.1531 149.217 81.2453C149.267 81.2209 149.298 81.182 149.309 81.1286L149.349 80.9352L153.755 79.3149Z" fill="#F7F7F7"/>
<path d="M137.82 80.918C134.331 82.3083 130.878 83.7747 127.461 85.3172C127.169 85.4497 126.932 85.3869 126.748 85.1291C127.49 85.1726 127.865 84.8033 128.405 84.5715C131.089 83.4123 133.788 82.2874 136.5 81.1967C136.892 81.0382 137.402 80.9772 137.82 80.918Z" fill="#C5CBD9"/>
<path d="M149.363 80.9294L149.323 81.1228C149.311 81.1763 149.28 81.2152 149.23 81.2396C145.256 83.1474 141.507 84.6858 138.571 86.158C135.292 87.8028 131.896 90.0294 128.464 91.9808C125.235 93.8148 122.004 95.6459 118.772 97.4742C114.684 99.7868 110.233 102.649 105.419 106.062C104.344 106.824 101.873 108.52 98.0035 111.149C95.123 113.107 91.355 115.93 86.6996 119.619C82.5773 122.885 78.6781 126.663 74.7788 130.24C73.9437 131.006 73.108 131.813 72.2717 132.66C70.606 134.343 68.8115 136.09 67.3166 137.763C64.5615 140.849 62.0014 144.088 59.6366 147.48L56.7513 145.298C58.3473 143.077 59.9101 140.953 61.8127 138.904C65.2659 135.184 69.0844 131.509 73.2682 127.881C79.6137 122.38 86.2204 117.211 93.0885 112.376C105.377 103.726 116.749 96.7529 129.41 90.3308C133.541 88.2348 137.712 86.2225 141.869 84.1771C144.315 82.9737 146.813 81.8912 149.363 80.9294Z" fill="#C5CBD9"/>
<path d="M154.34 84.1361L140.538 96.008L138.424 97.8671C134.653 101.222 130.583 105.002 126.216 109.209C119.471 115.706 113.183 122.409 107.351 129.319C105.803 131.152 104.528 132.88 103.275 134.79C99.1478 141.083 95.2399 147.595 92.5585 154.632C92.54 154.681 92.5378 154.734 92.5522 154.784C92.5667 154.834 92.597 154.878 92.6386 154.91C95.4054 156.985 98.232 158.838 101.118 160.467L99.9441 161.002C99.9183 161.014 99.8904 161.02 99.8622 161.02C99.8339 161.02 99.806 161.014 99.7803 161.002C98.3516 160.356 96.7261 159.858 95.4368 159.281C93.0289 158.202 90.646 157.082 88.2881 155.92C88.2805 155.917 88.2736 155.911 88.268 155.905C88.2623 155.899 88.2581 155.891 88.2555 155.883C88.2528 155.875 88.2519 155.867 88.2527 155.859C88.2536 155.85 88.2561 155.842 88.2603 155.835C90.2691 152 92.2397 148.109 94.3792 144.344C99.21 135.845 105.032 128.092 111.846 121.083C120.36 112.326 129.232 103.944 138.327 96.0115C143.37 91.6128 148.676 87.3158 154.244 83.1204C154.298 83.0797 154.325 83.0931 154.326 83.1604L154.34 84.1361Z" fill="#C5CBD9"/>
<path d="M154.329 84.124C154.454 88.2601 154.582 91.797 154.265 95.4645C153.959 99.0002 153.633 102.545 153.285 106.098L140.527 95.9959L154.329 84.124Z" fill="#F7F7F7"/>
<path d="M123.63 86.9821C123.43 86.8892 123.174 86.9118 122.861 87.0501C119.924 88.3533 117.053 89.7663 114.129 91.1165C107.561 94.1481 101.494 97.5926 95.0247 101.203C93.2232 102.206 91.3956 103.396 89.3884 104.581C85.477 106.889 79.4278 110.679 74.6382 113.961C74.356 114.153 74.1678 114.421 73.9744 114.693C71.3912 116.453 68.8608 118.289 66.3832 120.202C64.2669 114.843 62.6042 109.347 61.3951 103.715C61.3341 103.431 61.2052 103.293 61.0414 103.067L78.4834 90.9336C78.5601 90.8802 78.6403 90.8744 78.7239 90.9162C83.895 93.5296 89.0679 96.1233 94.2425 98.6972C95.1484 99.1467 95.7147 98.9342 96.605 98.4167C104.753 93.6882 112.905 88.966 121.06 84.2502C121.119 84.2165 121.175 84.2206 121.227 84.2624L124.189 86.6127C124.247 86.6592 124.242 86.6981 124.175 86.7295L123.63 86.9821Z" fill="#F7F7F7"/>
<path d="M123.622 86.9938C118.841 89.224 113.987 91.3879 109.291 93.7818C97.1616 99.9652 85.2356 107.192 73.9665 114.705C74.1599 114.433 74.3481 114.165 74.6303 113.973C79.4199 110.691 85.4691 106.901 89.3805 104.593C91.3877 103.408 93.2153 102.218 95.0168 101.214C101.486 97.6044 107.553 94.1599 114.121 91.1283C117.045 89.778 119.916 88.365 122.853 87.0618C123.166 86.9236 123.422 86.9009 123.622 86.9938Z" fill="#C5CBD9"/>
<path d="M138.421 97.8707L153.114 109.493C152.978 110.748 152.849 111.998 152.727 113.245C152.283 117.769 150.911 121.957 148.61 125.808C141.564 137.603 130.339 146.388 118.249 152.549C115.601 153.898 111.747 155.78 106.687 158.194C104.651 159.165 102.794 159.924 101.115 160.471C98.2288 158.841 95.4022 156.989 92.6355 154.913C92.5938 154.881 92.5635 154.837 92.549 154.787C92.5346 154.737 92.5368 154.684 92.5553 154.636C95.2367 147.599 99.1446 141.086 103.272 134.793C104.525 132.884 105.8 131.155 107.347 129.322C113.179 122.412 119.468 115.709 126.213 109.213C130.58 105.006 134.65 101.225 138.421 97.8707Z" fill="#F7F7F7"/>
<path d="M61.0484 103.06C61.2122 103.287 61.3411 103.424 61.4021 103.708C62.6113 109.341 64.274 114.836 66.3903 120.196C62.2553 123.533 58.2532 127.024 54.3842 130.669C51.6749 126.954 49.2549 123.063 47.9516 118.614C47.3871 116.685 47.1624 114.819 46.8766 112.908L61.0484 103.06Z" fill="#C5CBD9"/>
<path d="M46.8822 112.944C47.1679 114.855 47.3927 116.721 47.9572 118.65C49.2604 123.1 51.6805 126.99 54.3897 130.705L50.3772 134.679C50.3331 134.722 50.2924 134.719 50.2553 134.67C48.2516 132.067 46.5866 129.26 45.2601 126.25C43.7896 122.915 43.2565 119.361 42.8732 115.766C42.8662 115.708 42.8871 115.663 42.9359 115.63L46.8822 112.944Z" fill="#00A6FB"/>
</svg>
